<?xml version="1.0" encoding="UTF-8"?>
<svg id="Layer_1" xmlns="http://www.w3.org/2000/svg" version="1.1" viewBox="0 0 256 256">
  <!-- Created by Zoltan Dul in 2026 - free to use with MIT license. SVG Version: 2.1.1 -->
  <path d="M127,8.5c-12.6-.4-31.7-4.7-41.2-2.2-24.6,6.5-31.8,17.8-32.9,48.9-.9,27.2,7,58,16,74.1,6.8,11.6-8.5,58.2-6.9,80.9,1.5,22.6,20.5,50.7,31.8,40,2.4-2.2,11.4-10.8,16.6-24.3,2.6-6.8-.1-14.6,1.8-22.1,5.2-20.8,4.9-34.6,8.9-34.5,8.1.3,5.2,12.6,8.2,28.8s4.3,43.8,8,49c11,15.5,44.6-10.8,46.8-27.7,3.2-22.6-7.1-73.5.4-84.6,1.8-20.8,7.7-22.8,8.6-50s7.9-40.1,4.6-48.9c-7.9-21.3-2.6-23.8-25.1-34.4s-38.6,7.2-45.7,7Z" style="fill: none; stroke: #3b82f6; stroke-dasharray: 10 10; stroke-linejoin: round; stroke-width: 6px;"/>
  <path id="tooth-base" d="M123.6,148.7c-7.3-2-11.8,14.6-14.2,20.4-1.6,4.4-3.1,8.3-4.3,12.7-4.4,16.1-1.6,34.3-6.8,50.3-3.5,12.7-15.3,14.4-21.2,2.2-2.9-6.1-3.9-12.9-4.8-19.6-1-7.7-.8-15.6.7-23.1,1.8-11.4,7.5-22,7.5-33.8-.1-17.2-3-32.7-6.7-49.2-8.4-29.3-27.4-79.6,13.2-93.9,12.3-4.9,25,3.3,37.5,3,1.7,0,3.4-.2,5.1-.4,12.9-2.1,27.7-9.6,41-5.3,22.5,7.4,20.6,39.1,16.6,58.5-1,4.8-2.3,9.4-3.6,13.2-2.2,6.2-5.3,12.2-6.7,19.1-1.9,8.4-2.9,16.8-3.7,25-1.5,15.5.3,30.4.5,45.1,0,8.7-.4,17.8-1.2,26.3-.8,8.3-2.5,16.7-4.5,24.9-1.7,7.8-5.6,18.9-14.1,20.5-14.8.7-11.9-38.8-14.3-48.9-1.8-10.1-6.8-42.3-15.9-47.4h-.1Z" style="fill: #fff; stroke: #000; stroke-miterlimit: 10; stroke-width: 8px;"/>
  <g id="x-line">
    <line id="line-2" x1="16.7" y1="15.6" x2="225.3" y2="224.2" style="fill: none; stroke: #ef4444; stroke-linecap: round; stroke-width: 14px;"/>
    <line id="line-1" x1="16.7" y1="15.6" x2="225.3" y2="224.2" style="fill: none; isolation: isolate; opacity: .2; stroke: #111827; stroke-linecap: round; stroke-width: 3px;"/>
  </g>
</svg>