<?xml version="1.0" encoding="UTF-8"?>
<svg id="Layer_1" xmlns="http://www.w3.org/2000/svg" version="1.1" viewBox="0 0 256 256">
  <!-- Created by Zoltan Dul in 2026 - free to use with MIT license. SVG Version: 2.1.1 -->
  <path id="tooth-occlusal" d="M107.9,27.1c11.6,0,24.9,1.7,37,2.8,8.3,0,17.1,1.1,24.9,3.9,5,1.7,9.4,3.3,14.4,5.5,7.7,3.3,15.5,7.7,21.6,14.4,6.1,6.1,11.1,13.3,13.3,21.6,1.1,3.3,1.7,7.2,2.8,11.1,1.7,9.4,2.8,17.7,2.8,26.5s0,13.3-1.1,19.9c0,8.8-1.1,17.1-2.8,25.4-2.8,11.1-5.5,23.2-11.1,33.2-7.7,13.3-22.7,21-37,24.3-5.5,1.1-11.6,2.2-17.1,3.3-8.3,1.7-16.6,4.4-24.9,6.6-7.2,1.7-14.4,1.1-21,0-6.1,0-12.2-1.7-18.2-1.7-10.5-1.1-21.6-1.7-30.4-7.7-7.2-5-12.7-12.2-17.1-19.9-5.5-8.3-9.4-17.7-11.1-27.6-1.7-7.2-1.1-14.9-1.1-22.1s2.8-19.4,3.9-29.3c2.2-11.6,2.8-23.8,5.5-35.4,2.8-11.6,8.3-22.1,15.5-31,7.7-8.8,18.2-16.6,29.3-19.9,7.2-1.7,14.9-2.8,22.1-2.8h0v-1.1h-.2Z" style="fill: #fff; stroke: #000; stroke-miterlimit: 10; stroke-width: 8px;"/>
  <g id="x-line" style="display: none;">
    <line id="line-2" x1="16.7" y1="15.6" x2="225.3" y2="224.2" style="fill: none; stroke: #ef4444; stroke-linecap: round; stroke-width: 14px;"/>
    <line id="line-1" x1="16.7" y1="15.6" x2="225.3" y2="224.2" style="fill: none; isolation: isolate; opacity: .2; stroke: #111827; stroke-linecap: round; stroke-width: 3px;"/>
  </g>
</svg>