<?xml version='1.0' encoding='utf-8'?>
<!-- Created by Zoltan Dul in 2026 - free to use with MIT license. Part of React Odontogram Modul - https://github.com/ZoliQua/React-Odontogram-Modul - SVG Version: 2.1.1 -->
<svg xmlns="http://www.w3.org/2000/svg" id="molar_x5F_tooth" version="1.1" viewBox="0 0 40.6 64">
  <style>
    [data-active="0"] { display: none; }
  </style>
  <defs>
    <linearGradient id="linear-gradient-16-0" x1="-2244.1" y1="-10204.3" x2="-2240" y2="-10204.3" gradientTransform="translate(-414.1 -10416.1) rotate(-14.8) scale(1 -1)" gradientUnits="userSpaceOnUse" data-active="1">
      <stop offset=".2" stop-color="#ff422a" stop-opacity=".5" data-active="1" />
      <stop offset="1" stop-color="#000" data-active="1" />
      </linearGradient>
    <linearGradient id="linear-gradient-16-1" x1="-29561" y1="4580.1" x2="-29557" y2="4580.1" gradientTransform="translate(-27420 -11911.2) rotate(-165.3) scale(1 -1)" gradientUnits="userSpaceOnUse" data-active="1">
      <stop offset=".2" stop-color="#ff422a" stop-opacity=".5" data-active="1" />
      <stop offset="1" stop-color="#000" data-active="1" />
      </linearGradient>
    <linearGradient id="linear-gradient-16-2" x1="-984.9" y1="-8678.6" x2="-980.8" y2="-8678.6" gradientTransform="translate(-70.5 -8719.6) rotate(-7.1) scale(1 -1)" gradientUnits="userSpaceOnUse" data-active="1">
      <stop offset=".2" stop-color="#ff422a" stop-opacity=".5" data-active="1" />
      <stop offset="1" stop-color="#000" data-active="1" />
      </linearGradient>
    <linearGradient id="linear-gradient-16-3" x1="-28876.9" y1="6668.9" x2="-28872.8" y2="6668.9" gradientTransform="translate(-27924.3 -9882) rotate(-173.5) scale(1 -1)" gradientUnits="userSpaceOnUse" data-active="1">
      <stop offset=".2" stop-color="#ff422a" stop-opacity=".5" data-active="1" />
      <stop offset="1" stop-color="#000" data-active="1" />
      </linearGradient>
    <linearGradient id="linear-gradient-16-4" x1="-2756.5" y1="-10773.6" x2="-2752.4" y2="-10773.6" gradientTransform="translate(-408.9 -11095.5) rotate(-16.5) scale(1 -1)" gradientUnits="userSpaceOnUse" data-active="1">
      <stop offset=".2" stop-color="#ff422a" stop-opacity=".5" data-active="1" />
      <stop offset="1" stop-color="#000" data-active="1" />
      </linearGradient>
    <linearGradient id="linear-gradient-16-5" x1="-28636.3" y1="-397.6" x2="-28632.4" y2="-397.6" gradientTransform="translate(-26950.8 -16250.7) rotate(-148.2) scale(1.1 -1)" gradientUnits="userSpaceOnUse" data-active="1">
      <stop offset=".2" stop-color="#ff422a" stop-opacity=".5" data-active="1" />
      <stop offset="1" stop-color="#000" data-active="1" />
      </linearGradient>
    <linearGradient id="linear-gradient-16-6" x1="-28638.7" y1="-391.3" x2="-28634.7" y2="-391.3" gradientTransform="translate(-26950.8 -16250.7) rotate(-148.2) scale(1.1 -1)" gradientUnits="userSpaceOnUse" data-active="1">
      <stop offset=".2" stop-color="#ff422a" stop-opacity=".5" data-active="1" />
      <stop offset="1" stop-color="#000" data-active="1" />
      </linearGradient>
    <linearGradient id="linear-gradient-16-7" x1="-10608.4" y1="-15012" x2="-10604.5" y2="-15012" gradientTransform="translate(-3241.5 -18718.8) rotate(-47.7) scale(1.1 -1)" gradientUnits="userSpaceOnUse" data-active="1">
      <stop offset=".2" stop-color="#ff422a" stop-opacity=".5" data-active="1" />
      <stop offset="1" stop-color="#000" data-active="1" />
      </linearGradient>
    <linearGradient id="linear-gradient-16-8" x1="20.4" y1="4091.2" x2="20.4" y2="4100.9" gradientTransform="translate(0 -4056)" gradientUnits="userSpaceOnUse" data-active="1">
      <stop offset=".2" stop-color="#cf0" stop-opacity=".5" data-active="1" />
      <stop offset="1" stop-color="#b4c500" data-active="1" />
      </linearGradient>
    <linearGradient id="linear-gradient-16-9" x1="20.1" y1="4087.4" x2="20.1" y2="4094.9" gradientTransform="translate(0 -4056)" gradientUnits="userSpaceOnUse" data-active="1">
      <stop offset="0" stop-color="#c8c9c9" data-active="1" />
      <stop offset="1" stop-color="#828282" data-active="1" />
      </linearGradient>
    <radialGradient id="radial-gradient-16-0" cx="-417.2" cy="3088.3" fx="-417.2" fy="3088.3" r="11.5" gradientTransform="translate(562.9 -3042) scale(1.3 1)" gradientUnits="userSpaceOnUse" data-active="1">
      <stop offset="0" stop-color="#fff" data-active="1" />
      <stop offset="0" stop-color="#ececec" data-active="1" />
      <stop offset=".3" stop-color="#cfcfcf" data-active="1" />
      <stop offset=".6" stop-color="#bababa" data-active="1" />
      <stop offset=".8" stop-color="#aeaeae" data-active="1" />
      <stop offset="1" stop-color="#aaa" data-active="1" />
      </radialGradient>
    <radialGradient id="radial-gradient-16-1" cx="-687.8" cy="3090.4" fx="-687.8" fy="3090.4" r="10.2" gradientTransform="translate(1121.9 -3042) scale(1.6 1)" gradientUnits="userSpaceOnUse" data-active="1">
      <stop offset="0" stop-color="#fff" data-active="1" />
      <stop offset="0" stop-color="#fefefe" data-active="1" />
      <stop offset=".2" stop-color="#f8d6d4" data-active="1" />
      <stop offset=".3" stop-color="#f2b5b2" data-active="1" />
      <stop offset=".5" stop-color="#ee9b98" data-active="1" />
      <stop offset=".6" stop-color="#eb8985" data-active="1" />
      <stop offset=".8" stop-color="#e97e79" data-active="1" />
      <stop offset="1" stop-color="#e97b76" data-active="1" />
      </radialGradient>
    <linearGradient id="linear-gradient-16-10" x1="20.3" y1="-3029.2" x2="20.3" y2="-3019.6" gradientTransform="translate(0 -2976) scale(1 -1)" gradientUnits="userSpaceOnUse" data-active="1">
      <stop offset="0" stop-color="#f9ae94" data-active="1" />
      <stop offset=".5" stop-color="#cd986a" data-active="1" />
      <stop offset="1" stop-color="#f9ae94" data-active="1" />
      </linearGradient>
    <radialGradient id="radial-gradient-16-2" cx="19.8" cy="1059.6" fx="19.8" fy="1059.6" r="14.1" gradientTransform="translate(0 -1014)" gradientUnits="userSpaceOnUse" data-active="1">
      <stop offset="0" stop-color="#fff" data-active="1" />
      <stop offset="0" stop-color="#fdf3ea" data-active="1" />
      <stop offset=".2" stop-color="#f9d8b9" data-active="1" />
      <stop offset=".3" stop-color="#f5c18f" data-active="1" />
      <stop offset=".4" stop-color="#f2ae6c" data-active="1" />
      <stop offset=".6" stop-color="#f09f52" data-active="1" />
      <stop offset=".7" stop-color="#ef953f" data-active="1" />
      <stop offset=".9" stop-color="#ee8f33" data-active="1" />
      <stop offset="1" stop-color="#ee8d30" data-active="1" />
      </radialGradient>
    </defs>
  <g id="base" data-active="1">
    <path id="bone-base" d="M40.6,16.5l-2.9,1.2c-2.6,1.4,0,8.6-2,10.8,0,4.4-4.6,3.5-6,3.4-4-.2-13.3,0-18,0s-5.1-2.9-5.2-2.8c-2.1,0-2.2-11.4-2.2-11.4l-1.5-2c-.2-.4-2.4-.9-2.4-1.4V.3h40.3v16.2h0Z" style="fill: #fdecc5;" data-active="1" />
    <path id="gum-base" d="M40.9,17.2c-1.1,1-2.9,1.7-3.4,3-1.1,3.5-.2,7.6-1.7,11-2.1,5.1-6.4.4-10.5.5-4.1,0-8.6-.2-12.5.5-2.4.6-4.9,2.6-7.4,1.2C-.6,29.7,3.6,20.8,1.3,15.8c-.2-.9-2.1-2.3-1.1-2.8,1.1-.5,4.4,1,4.7,2.2,2.1,3.7-2,13.9,3.6,15.2,2.7.3,8.7-.6,13.8-.9,3.9-.6,9.9.9,12-2.3,2.1-3.2,0-8.1,2.6-11.1s5.7-1.2,4,.9h0v.2h0Z" style="fill: #f79f9a;" data-active="1" />
    </g>
  <g id="mods" data-active="1">
    <path id="parodontal" d="M8.7,33.4c1.4.5,3.1.2,4.7.3,4.5.5,8.1.8,12.2,0,1.6-.3,3.7-.2,5.2-.3,1,0,1.6-.4,1.7-1.2,0-2.6.6-5.2.7-7.9,0-1.8,1.1-5-.6-6.4-1.7-1.1-5-1.7-7.5-1.3-2.5.6-1.2,4.2-2.6,5.5s-2.2.5-2.7,0-.9-2.3-1.2-3c-1.7-3.5-8.1-1.2-11.1-.1-1,.4-.6,2-.7,2.9-.2,1.5,0,3.4,0,5,.4,2.3-1,4.7,1.4,6.3h.1l.2.2h.2Z" style="display: none; fill: #ffa46a;" data-active="1" />
    <g id="inflammation" style="display: none;" data-active="1">
      <path id="inflammation-outside" d="M8.5,1.1c-4,3.4-4.9,14.1-.2,16.6s7.4,2.5,10.5,2.8c6.3.6,16.5-1.1,18.7-9.2,1.4-5.9-2.8-10.4-6.8-11.3s-6.1,3.5-9.8,3.7c-4.5,0-8.9-5.6-12.3-2.7Z" style="fill: #ffa46a;" data-active="1" />
      <path id="inflammation-inside" d="M10,3.2c-3.3,2.7-3.8,10.8.2,12.8s6.2,2,8.7,2.3c5.2.5,14.4-.6,16.2-7.1,1-4.1-2.4-8.2-5.1-8.6s-5.7,4-9.3,4.2c-3.7,0-7.8-5.8-10.7-3.5Z" style="fill: #feffd5;" data-active="1" />
      </g>
    <g id="mobility" style="display: none;" data-active="1">
      <path id="tooth-mobility-2" d="M31.1,8.5l3.9-1.1c-1.4,1.6-2.7,3.2-4.1,4.8,1.4-.4,2.8-.7,4.2-1.1-1.8,1.9-3.5,3.8-5.2,5.8,1.6-.2,3.2-.3,4.9-.5-1.5,1.4-3,2.8-4.6,4.2,1-.1,2-.2,3.1-.2-1,1.1-2,2.2-3.1,3.3,1.3-.4,2.7-.6,4-.6-1.2,1-2.3,2.1-3.4,3.3.9-.2,1.8-.2,2.8-.1-1.1.8-2.2,1.6-3.3,2.5" style="fill: none; stroke: #f99; stroke-miterlimit: 10; stroke-width: .8px;" data-active="1" />
      <path id="tooth-mobility-1" d="M7.2,8.8c1-.4,2.1-.2,3,.6-1.2,1.3-2.4,2.5-3.7,3.6,1.3-.2,2.6-.2,3.8.2-1.2,1.2-2.3,2.5-3.4,3.9.9,0,1.9.1,2.9.4-.8.9-1.6,1.9-2.4,2.8.7,0,1.5.1,2.2.5-.8,1.2-1.4,2.6-2.1,4,.9-.3,1.7-.5,2.6-.8-1.2,1.2-2.2,2.7-3.1,4.5.7.1,1.5,0,2.2-.2" style="fill: none; stroke: #f99; stroke-miterlimit: 10; stroke-width: .8px;" data-active="1" />
      </g>
    </g>
  <g id="tooth-variants" data-active="1">
    <path id="no-tooth-after-extraction" d="M19,32.9c-4.4,0-11.9,2.5-10.6-1.7,3.2-9.7-2.2-22.9.8-26.1,2.6-2.3,5.2,0,5.8,2.4,1.7,4.5,1.4,10.5,2.6,15.4.6,2,3.6,2.4,5.7,1.6,1.4-.5,1.8-2.2,2-3.9.5-4.4.7-9.2,2-13,.7-1.7,1.2-3,3.5-3.1,6.3,0-.7,16.6,1.6,24.9.8,2.2-2.3,3.9-4.6,3.8,0,0-1.7.3-8.8,0,0,0,0-.3,0-.3Z" style="display: none; fill: #fff; stroke: #f99; stroke-miterlimit: 10; stroke-width: .2px;" data-active="1" />
    <path id="tooth-under-gum" d="M14.4,9c.5.7,1.3,1.6,2.4,1.7,1,0,1.5-.9,1.5-1.6,0-2.5-1.9-4.7-1.8-7.2.1-.9,1.1-1.3,1.8-.7.9.6,1.4,1.6,2,2.5.9,1.6,1,3.3,1.2,5.1.2,1.9.9,3.8,2.4,5.3,2.5,3,8,7.3,3.6,10.9-.7.4-1.6.5-2.6.7-1.8.3-2.5,1.6-4,2.5-4.5,2.7-6.3-4.6-6.3-7.2s.1-2.5-.3-3.6c-.8-2.3-2.7-4.4-3.5-6.6-.6-1.4-1-3-1.3-4.6-.2-.8,0-3,1.5-2.3,1.5,1.3,2.1,3.6,3.3,5h.1Z" style="display: none; fill: #ebebeb; stroke: #c8c9c9; stroke-miterlimit: 10;" data-active="1" />
    <path id="tooth-broken-inicisal" d="M20.1,24.3c1.9.9,3.6-.4,4.2-1.8,2.1-4.8.4-10.7,2.7-15.5,1-1.7,3.2-1.5,4.2.2,1.2,1.9,1.4,4.3,1.7,6.5.4,3.8-.9,7.3-2,11-1.2,4-1.5,8.3,0,12.4,2.1,7.5,8.5,19.4-.4,23.6s-.5-.9-1.2-.7c-1,0-1.4-2.3-2.5-2.5s-2.7-2.9-3.6-3.1c-1-.3-2.9,1.2-4.7,1.2s-3.5-1.3-4.4-1c-1.4.4.4,7.3-1.2,7.5-11.1,1.4-8.4-14.5-6.1-19.4,1.1-2.3,2.4-4.7,2.6-7.3.4-5.2-1.4-10.8-1-15.9,0-3.3.6-6.8,1.5-10.1.2-1.7,2.7-5.9,4.9-3.2,1.7,3.9,1.1,8.8,2,12.6,0,0,1.2,4.5,3.3,5.5Z" style="display: none; fill: #ebebeb; stroke: #c8c9c9; stroke-miterlimit: 10;" data-active="1" />
    <path id="tooth-broken-mesial-distal-inicisal" d="M20.1,24.3c1.9.9,3.6-.4,4.2-1.8,2.1-4.8.4-10.7,2.7-15.5,1-1.7,3.2-1.5,4.2.2,1.2,1.9,1.4,4.3,1.7,6.5.4,3.8-.9,7.3-2,11-1.2,4-1.5,8.3,0,12.4.9,3,2,6.7,2.9,10.3s-3.6,1.9-3.6,3.4-4,1.2-4.6,2.6-.7,2.1,0,3.1c1.5,2.3,5,4.4,2.7,5.1-.8,0-2.6-1.9-3.5-2.1s-3.5-.5-4.5-.7c-2.1-.6-1.1-6.2-2.9-5.6s-1.9,5.2-3.4,5.4c-1.4.2-3.8,3.8-4.8,3.5-2.6-.8-3.8-3.1-4.3-5.8s6.4.6,6.4-.5-2.9-3.2-2.8-4.1c.1-1.3,3.6-3.4,3.9-4.6s-1.5-3.9-1-4.8c1.1-2.3-2.3-4-2.1-6.6.4-5.2-1.4-10.8-1-15.9,0-3.3.6-6.8,1.5-10.1.2-1.7,2.7-5.9,4.9-3.2,1.7,3.9,1.1,8.8,2,12.6,0,0,1.4,4.4,3.5,5.4v-.2s-.1,0-.1,0Z" style="display: none; fill: #ebebeb; stroke: #c8c9c9; stroke-miterlimit: 10;" data-active="1" />
    <path id="tooth-broken-mesial-distal" d="M20.1,24.3c1.9.9,3.6-.4,4.2-1.8,2.1-4.8.4-10.7,2.7-15.5,1-1.7,3.2-1.5,4.2.2,1.2,1.9,1.4,4.3,1.7,6.5.4,3.8-.9,7.3-2,11-1.2,4-1.5,8.3,0,12.4.9,3,2,6.7,2.9,10.3s-3.6,1.9-3.6,3.4-4,1.2-4.6,2.6-.7,2.1,0,3.1c1.5,2.3,5,4.4,2.7,5.1-1.7.2-3.6-.5-5.6-.9-3.7-1-6.4,1-10,1.5-5,.6-7.2-2.2-7.9-6s6.4.6,6.4-.5-2.9-3.2-2.8-4.1c.1-1.3,3.6-3.4,3.9-4.6s-1.5-3.9-1-4.8c1.1-2.3-2.3-4-2.1-6.6.4-5.2-1.4-10.8-1-15.9,0-3.3.6-6.8,1.5-10.1.2-1.7,2.7-5.9,4.9-3.2,1.7,3.9,1.1,8.8,2,12.6,0,0,1.4,4.4,3.5,5.4h0Z" style="display: none; fill: #ebebeb; stroke: #c8c9c9; stroke-miterlimit: 10;" data-active="1" />
    <path id="tooth-broken-mesial-inicisal" d="M20.1,24.3c1.9.9,3.6-.4,4.2-1.8,2.1-4.8.4-10.7,2.7-15.5,1-1.7,3.2-1.5,4.2.2,1.2,1.9,1.4,4.3,1.7,6.5.4,3.8-.9,7.3-2,11-1.2,4-1.5,8.3,0,12.4.7,2.8,2.2,6.3,3.1,9.7s-3,1.8-2.7,2.9c.4,2.1-1.4,2.3-1.9,4s-3.2-2.3-4.5-1.3-.1,3.2-1.7,3.6c-1.7.2-2.4-1.3-4.4-1.7-1.4-.4,1.4,5.9.2,6.1-2,.4-3.9,1.3-6.2,1.6-11.1,1.4-8.4-14.5-6.1-19.4,1.1-2.3,2.4-4.7,2.6-7.3.4-5.2-1.4-10.8-1-15.9,0-3.3.6-6.8,1.5-10.1.2-1.7,2.7-5.9,4.9-3.2,1.7,3.9,1.1,8.8,2,12.6,0,0,1.3,4.6,3.4,5.6Z" style="display: none; fill: #ebebeb; stroke: #c8c9c9; stroke-miterlimit: 10;" data-active="1" />
    <path id="tooth-broken-mesial" d="M20.1,24.3c1.9.9,3.6-.4,4.2-1.8,2.1-4.8.4-10.7,2.7-15.5,1-1.7,3.2-1.5,4.2.2,1.2,1.9,1.4,4.3,1.7,6.5.4,3.8-.9,7.3-2,11-1.2,4-1.5,8.3,0,12.4.9,3,2,6.7,2.9,10.3s-3.6,1.9-3.6,3.4-4,1.2-4.6,2.6-.7,2.1,0,3.1c1.5,2.3,5,4.4,2.7,5.1-1.7.2-3.6-.5-5.6-.9-3.7-1-6.4,1-10,1.5-11.1,1.4-8.4-14.5-6.1-19.4,1.1-2.3,2.4-4.7,2.6-7.3.4-5.2-1.4-10.8-1-15.9,0-3.3.6-6.8,1.5-10.1.2-1.7,2.7-5.9,4.9-3.2,1.7,3.9,1.1,8.8,2,12.6,0,0,1.4,4.4,3.5,5.4Z" style="display: none; fill: #ebebeb; stroke: #c8c9c9; stroke-miterlimit: 10;" data-active="1" />
    <path id="tooth-broken-distal-inicisal" d="M20.1,24.3c1.9.9,3.6-.4,4.2-1.8,2.1-4.8.4-10.7,2.7-15.5,1-1.7,3.2-1.5,4.2.2,1.2,1.9,1.4,4.3,1.7,6.5.4,3.8-.9,7.3-2,11-1.2,4-1.5,8.3,0,12.4,2.2,8,9.4,21.1-2.5,24.4-1.7.2-3.6-.5-5.6-.9-1.4-.4-1.1-3.5-2.4-3.2s-2.5-3.5-3.2-3.6c-1.2,0-.2-9.1-3.1-2.9-3.1.4-2.4,5.1-3.6,3.4s-2,.9-2.1-.9-.1-2,0-3.2-3.2-1.6-3-2.9.9-3.4,1.4-4.5c1.1-2.3,2.4-4.7,2.6-7.3.4-5.2-1.4-10.8-1-15.9,0-3.3.6-6.8,1.5-10.1.2-1.7,2.7-5.9,4.9-3.2,1.7,3.9,1.1,8.8,2,12.6,0,0,1.2,4.4,3.3,5.4Z" style="display: none; fill: #ebebeb; stroke: #c8c9c9; stroke-miterlimit: 10;" data-active="1" />
    <path id="tooth-broken-distal" d="M20.1,24.3c1.9.9,3.6-.4,4.2-1.8,2.1-4.8.4-10.7,2.7-15.5,1-1.7,3.2-1.5,4.2.2,1.2,1.9,1.4,4.3,1.7,6.5.4,3.8-.9,7.3-2,11-1.2,4-1.5,8.3,0,12.4,2.2,8,9.4,21.1-2.5,24.4-1.7.2-3.6-.5-5.6-.9-3.7-1-6.4,1-10,1.5-1.4.2-2.6,0-3.6-.3-2.5-.8,5.4-5.3,4.9-8s-4.9-.2-4.9-1.4,2.2-3.1,2.4-4c.2-1.6-6.1-2-5.7-3.3s.6-1.8.9-2.5c1.1-2.3,2.4-4.7,2.6-7.3.4-5.2-1.4-10.8-1-15.9,0-3.3.6-6.8,1.5-10.1.2-1.7,2.7-5.9,4.9-3.2,1.7,3.9,1.1,8.8,2,12.6,0,0,1.2,4.6,3.3,5.6Z" style="display: none; fill: #ebebeb; stroke: #c8c9c9; stroke-miterlimit: 10;" data-active="1" />
    <path id="tooth-crownprep" d="M24.4,22.1c2-4.3.7-9.3,2.2-13.7.4-1.1,1.4-2.6,3-2.4,4.9,1.5,3.9,12.1,2.6,15.5-.9,3.2-1.7,5.8-1.7,9s1.3,3.1,1.6,4.6-2.7-.4-2.7,1.2,1.8,4.9,1.1,6.6-2.9,2.6-5.2,2.2c-2.5-.4-3-2.5-5-2.3-2.6.5-5.8,4.2-8.9,2.4-1.2-.6-1.5-1.9-1.5-3.4s.4-3.2.7-4.1-2.5.5-2.5-.4,1-2.5,1-3.3c0-7.1-1.9-13.3-.5-20.5.6-2.6.6-6.1,3.5-7.8,1.1-.5,2,.2,2.5,1,1.9,3.8,1.1,8.6,2,12.2,0,0,4.8,8.1,7.7,3.3h.1Z" style="display: none; fill: #ebebeb; stroke: #c8c9c9; stroke-miterlimit: 10;" data-active="1" />
    <path id="tooth-radix" d="M24.4,22.1c2-4.3.7-9.3,2.2-13.7.4-1.1,1.4-2.6,3-2.4,4.9,1.5,3.9,12.1,2.6,15.5-.9,3.2-1.7,5.8-1.7,9s1.3,3.1,1.6,4.6-9.8,7.5-11.8,7.7c-2.6.5-12.2-4.6-12.2-5.5s1-2.5,1-3.3c0-7.1-1.9-13.3-.5-20.5.6-2.6.6-6.1,3.5-7.8,1.1-.5,2,.2,2.5,1,1.9,3.8,1.1,8.6,2,12.2,0,0,4.8,8.1,7.7,3.3h.1Z" style="display: none; fill: #ebebeb; stroke: #c8c9c9; stroke-miterlimit: 10;" data-active="1" />
    </g>
  <g id="tooth" data-active="1">
    <path id="tooth-base" d="M20.1,24.1c1.9.9,3.6-.4,4.2-1.8,2.1-4.8.4-10.7,2.7-15.5,1-1.7,3.2-1.5,4.2.2,1.2,1.9,1.4,4.3,1.7,6.5.4,3.8-.9,7.3-2,11-1.2,4-1.5,8.3,0,12.4,2.2,8,9.3,21.1-2.6,24.4-1.7.2-3.6-.5-5.6-.9-3.7-1-6.4,1-10,1.5-11.1,1.4-8.4-14.5-6-19.4,1.1-2.3,2.4-4.7,2.6-7.3.4-5.2-1.4-10.8-1-15.9,0-3.3.6-6.8,1.5-10.1.2-1.7,2.7-5.9,4.9-3.2,1.7,3.9,1.1,8.8,2,12.6,0,0,1.3,4.5,3.4,5.5Z" style="fill: #ebebeb; stroke: #c8c9c9; stroke-miterlimit: 10;" data-active="1" />
    <g id="tooth-base-beauty" data-active="1">
      <path id="tooth-base-beauty-1" d="M33,49.1v-.2.2c0,1.4,0,2.8-.2,4.2s-1.5,3.2-2.9,4.1-.6.3-1,.2c.1-.4.4-.5.6-.8,1.6-2.2,2.7-4.7,3.2-7.6h.3Z" style="fill: #fefdfd;" data-active="1" />
      <path id="tooth-base-beauty-2" d="M15.7,56.3c2.1-.8,5.6-1.2,7.6.6-1.9-.4-3.6-.4-5.5,0l-2.7.8c-1,.3-2,.4-2.9,0l3.6-1.4h0Z" style="fill: #fefefe;" data-active="1" />
      </g>
    <g id="tooth-inflam-pulp" style="display: none;" data-active="1">
      <path id="tooth-inflam-pulp-base-2" d="M13.4,6.4c1.1.7,0,4.1.4,6.7,0,3.6.7,7.7,2.7,10.8,1,1.3,1.9,2.2,3.5,2.3,1.2.2,2.6,0,3.5-.6,2.7-1.8,4.6-9.3,5-13.4.2-1.2.4-7.6,1.7-3.3,1.1,4-.9,6.7-1.5,11-1.1,3.4-2.7,7.2-2.1,12,.4,2.9,1.7,6.4,2.4,9.1.6,2.7-1,2.6-3.7,1.4-2-.7-3.5-2.4-5.9-2-3.6.7-6.2,3.9-7.4,3.3-.5-.2-.7-1.9-.5-2.3.6-2.7,1.7-5.5,2-8.2.2-2.9-.2-5.9-.6-8.9-.4-2.9-2.5-17.3.6-18.2h0v.3s-.1,0-.1,0Z" style="fill: #ff422a;" data-active="1" />
      <path id="tooth-inflam-pulp-base-1" d="M15.9,29.7c.4-.8,0-1.9,0-2.8.5,2.1.9,5.4.6,7.7,0,.6-.4,1.8-.5,2.2,0,.2,0,0,.2-.6.2-.5.5-1,.9-1.2.2,0,.5-.2.6-.3,0-.2,0-.4-.2-.7-.7-1.4-.9-3.1-.9-4.8s0-1.9,1.2-.5c2.4,2.1,3.6,0,5.5-1,.5,0,0,2.8,0,4s-.6,2.2-1.2,3.1h0c.7-.2,1.2.2,1.6,1,.2.6.4,1,.4.8-.7-3.6-.7-7.6.7-11.1,0,1-.4,3.2-.2,4.5-.2,2.8,2.4,7.9,0,9.2-1.2.4-3.1-1.1-5-1-1.5,0-3.1,1.3-4.5.5-2.1-1.9-.2-6.8.5-8.9h.3,0Z" style="fill: #ffa46a;" data-active="1" />
      <path id="pulp-inflam-path-8" d="M30.9,20.9h0v-.2c-.4-.1-.7-.2-1-.1-.7.2-1.6.3-2.2.6s-1.1.7-.1.8,2.6-.2,3.4-1.1h0Z" style="fill: url(#linear-gradient-16-0);" data-active="1" />
      <path id="pulp-inflam-path-7" d="M10.3,20.1h0v.2c0,.2.4.4.7.5.7.2,1.6.3,2.4.4s1.2,0,.6-.6-2.5-.9-3.6-.4h0c0-.1,0-.1,0-.1Z" style="fill: url(#linear-gradient-16-1);" data-active="1" />
      <path id="pulp-inflam-path-6" d="M32.5,13.3h0v-.2c-.2-.2-.6-.3-.9-.2-.7,0-1.6,0-2.4.4s-1.2.5-.1.7,2.6,0,3.5-.7h0Z" style="fill: url(#linear-gradient-16-2);" data-active="1" />
      <path id="pulp-inflam-path-5" d="M10.1,12.8h0v.2c0,.2.5.4.7.4.7,0,1.6.2,2.4,0s1.2-.3.4-.7-2.6-.5-3.6,0h0c0,.1.1.1.1.1Z" style="fill: url(#linear-gradient-16-3);" data-active="1" />
      <path id="pulp-inflam-path-4" d="M16.1,15h0v-.2c-.2-.1-.6-.1-1-.1-.7,0-1.5.4-2.2.7s-1,.6,0,.7,2.6-.3,3.4-1.1h-.2Z" style="fill: url(#linear-gradient-16-4);" data-active="1" />
      <path id="pulp-inflam-path-3" d="M27.1,8.7h0v.2c0,.3.4.5.6.7.6.4,1.5.7,2.2.9s1.4.2.7-.5-2.1-1.4-3.5-1.4h0Z" style="fill: url(#linear-gradient-16-5);" data-active="1" />
      <path id="pulp-inflam-path-2" d="M26,15.5h0v.2c0,.3.4.5.6.7.6.4,1.5.7,2.2.9s1.4.2.7-.5-2.1-1.4-3.5-1.4h0Z" style="fill: url(#linear-gradient-16-6);" data-active="1" />
      <path id="pulp-inflam-path-1" d="M15.3,7.9h-.2c-.4,0-.6.2-1,.3-.6.4-1.1,1-1.6,1.6s-.5,1,.4.7,2.1-1.4,2.4-2.6h0Z" style="fill: url(#linear-gradient-16-7);" data-active="1" />
      </g>
    <g id="tooth-healthy-pulp" data-active="1">
      <path id="tooth-healthy-pulp-2" d="M13.5,6.3c.8,1.6,0,3.8.2,5.8.1,3.9.8,8.8,3.4,11.8,2.9,3.3,4.3,2.7,7.4.1,2.7-1.9,3.6-9,4-12.7.1-1.1.2-2.7.6-3.6.1-.3.3-.5.4-.4.9.8,1,2.4,1,3.5-.4,4.4-2.8,9.1-3.3,13.8-.3,4,.8,8.7,1.6,12.6.6,2.1,0,3.2-2.2,2.4-5-1.7-5.9-3.9-11.6-.5-1,.5-2.1,1.6-3.1,1.1-.9-.9-.3-2.7,0-3.9,3.6-8.9-.7-16.1-.2-26,.2-1.6.1-3.6,1.5-4.3.1,0,.1,0,.1.1h0Z" style="fill: #fcc5bc;" data-active="1" />
      <path id="tooth-healthy-pulp-1" d="M16.3,29.1c.4-.7,0-1.6,0-2.3.5,1.7.9,4.5.6,6.4,0,.5-.4,1.5-.5,1.8,0,.2,0,0,.2-.5.2-.4.5-.8.9-1,.2,0,.5-.2.6-.2,0-.2,0-.3-.2-.6-.7-1.2-.9-2.6-.9-4s0-1.6,1.2-.4c2.4,1.7,3.6,0,5.5-.8.5,0,0,2.3,0,3.3s-.6,1.8-1.2,2.6h0c.7-.2,1.2.2,1.6.8.2.5.4.8.4.7-.7-3-.7-6.3.7-9.2,0,.8-.4,2.7-.2,3.7-.2,2.3,2.4,6.6,0,7.7-1.2.3-3.1-.9-5-.8-1.5,0-3.1,1.1-4.5.4-2.1-1.6-.2-5.7.5-7.4h.3,0Z" style="fill: #f6a09b;" data-active="1" />
      </g>
    <path id="tooth-bruxism-wear" d="M13.3,55.2c.7.5,1,1.8,2.6.7.3-.2.8-.5,1.4-.5,1.4.2.8,1,2,1.3,1.2.2,3.1-1.9,4.6-1.2.4.2.6.6.8.8.8.7,2-1.2,2.6-1.4.6-.3,1.1,0,1.4.5,1.3,2.2,1.5,0,2.8-.7h.6c4.9,1.6,2.6,5.6-3.1,6.4-4.8.9-5.1,0-8.3-.9-.9-.3-4.3,1.1-6.7,1.6s-5.5.3-6.4,0c-1.6-1-5.8-7,1.1-7s3.6,0,4.4.6h.2s0-.2,0-.2Z" style="display: none; fill: #fff; stroke: #aaa; stroke-miterlimit: 10; stroke-width: .5px;" data-active="1" />
    <path id="tooth-bruxism-neck-wear" d="M24,44.5c-.5-.2-.7-.9-1.8-.3-.2,0-.5.3-1,.3-1,0-.5-.5-1.4-.6-.8,0-2.1,1-3.1.6-.3,0-.4-.3-.5-.4-.5-.3-1.4.6-1.8.7-.4.2-.8,0-1-.2-.9-1.1-1,0-1.9.4h-.4c-3.4-.8-1.8-2.8,2.1-3.2,3.3-.5,3.5,0,5.7.4.6,0,2.9-.6,4.6-.8s3.8-.2,4.4,0c1.1.5,4,3.5-.7,3.5s-2.5,0-3-.3h-.1s-.1,0-.1-.1Z" style="display: none; fill: #fff; stroke: #aaa; stroke-miterlimit: 10; stroke-width: .5px;" data-active="1" />
    </g>
  <g id="endos" data-active="1">
    <path id="endo-medical-filling" d="M14.2,36.7c4.5,1.3,11.3.9,14.6-2.2.9-1.4.5-3.4.1-5-.9-3.5,1-10.7,1.2-14.3,0-2.9.5-6.7,0-9.2-.7-1.4-1.1,6-1.4,6.4-.6,3.8-1.7,7-2.2,10.9-.2,1.4-.6,3-2.6,3.5-2.1.4-5.4,1.9-7,.1-1.1-2.1-1.2-4.9-1.9-7.3-.5-2.6-.7-4.7-1-7.4,0-.7-.5-8.8-1.7-5.2-1.1,6.4,0,13.2-.6,19.9,0,2-.4,3.5-.7,5.4-.5,1.8.7,3.7,2.9,4.3h.4,0Z" style="display: none; fill: #fff; stroke: #f9ae94; stroke-miterlimit: 10; stroke-width: .2px;" data-active="1" />
    <path id="endo-filling-incomplete" d="M14.2,36.9c4.5,1,11.3.7,14.6-1.7.9-1.1.5-2.6.1-3.9-.9-2.7,1-8.3,1.2-11.1,0-2.2.5-5.2,0-7.1-.7-1.1-1.1,4.7-1.4,5-.6,2.9-1.7,5.4-2.2,8.5-.2,1.1-.6,2.3-2.6,2.7-2.1.3-5.4,1.5-7,0-1.1-1.6-1.2-3.8-1.9-5.7-.5-2-.7-3.6-1-5.7,0-.5-.5-6.8-1.7-4-1.1,5,0,10.2-.6,15.4,0,1.6-.4,2.7-.7,4.2-.5,1.4.7,2.9,2.9,3.3h.4,0Z" style="display: none; fill: #388aca;" data-active="1" />
    <path id="endo-filling" d="M14.2,36.7c4.5,1.3,11.3.9,14.6-2.2.9-1.4.5-3.4.1-5-.9-3.5,1-10.7,1.2-14.3,0-2.9.5-6.7,0-9.2-.7-1.4-1.1,6-1.4,6.4-.6,3.8-1.7,7-2.2,10.9-.2,1.4-.6,3-2.6,3.5-2.1.4-5.4,1.9-7,.1-1.1-2.1-1.2-4.9-1.9-7.3-.5-2.6-.7-4.7-1-7.4,0-.7-.5-8.8-1.7-5.2-1.1,6.4,0,13.2-.6,19.9,0,2-.4,3.5-.7,5.4-.5,1.8.7,3.7,2.9,4.3h.4,0Z" style="display: none; fill: #388aca;" data-active="1" />
    <path id="endo-glass-pin" d="M30.1,18c0,2.2-1.4,5.5-1.5,8.4-.1,2.2,1.4,4.5-.1,6.5-1.4,1.9-4.1,3-6.9,2.5-1.1-.2-2.4-.5-3.5-.2-3.6,1.1-7.2.7-6.9-3.1.2-2.3,1-4.2,1-6.5.5-4.2-.6-8.3.5-12.4,1.1-2.1,1.6,2.5,1.6,3.1.1,1.9.4,3,.7,4.9.2,1.2.7,2.3,1,3.5.4,1,.5,2.1,1.7,2.5s2.7,0,4.1-.2c2.4-.3,4.1-.7,4.5-2.8.7-3.2,2-5.6,2.5-8.6.2-.9.2-2.4.9-3.1.2,0,.2.3.4.5.2,1.3,0,3.6,0,4.9v.2h-.1.1Z" style="display: none; fill: #c8c9c9;" data-active="1" />
    <path id="endo-metal-pin" d="M30.1,18c0,2.2-1.4,5.5-1.5,8.4-.1,2.2,1.4,4.5-.1,6.5-1.4,1.9-4.1,3-6.9,2.5-1.1-.2-2.4-.5-3.5-.2-3.6,1.1-7.2.7-6.9-3.1.2-2.3,1-4.2,1-6.5.5-4.2-.6-8.3.5-12.4,1.1-2.1,1.6,2.5,1.6,3.1.1,1.9.4,3,.7,4.9.2,1.2.7,2.3,1,3.5.4,1,.5,2.1,1.7,2.5s2.7,0,4.1-.2c2.4-.3,4.1-.7,4.5-2.8.7-3.2,2-5.6,2.5-8.6.2-.9.2-2.4.9-3.1.2,0,.2.3.4.5.2,1.3,0,3.6,0,4.9v.2h-.1.1Z" style="display: none; fill: #3951a3;" data-active="1" />
    <path id="endo-resection" d="M5.7,10.4S12.4,1.8,13.4,1.8c2.9,0,9.8-.2,13.2-.3s8.5,9.1,8.5,9.4l.2,7.6-29.5.6-.2-8.8h.1Z" style="display: none; fill: #fdecc5;" data-active="1" />
    </g>
  <g id="surfaces" data-active="1">
    <g id="fillings" data-active="1">
      <g id="amalgam" data-active="1">
        <path id="filling-amalgam-occlusal" d="M9.8,58.3c-1.2,2.3.4,4,3.4,3.6,2.7-.2,5.2-1.4,7.9-1.6,2.9-.5,9.6,2.5,8.7-1.9-.6-3.7-4.2-5.4-9.2-5.3-4.6,0-8.9,1.7-10.6,5v.2s-.2,0-.2,0Z" style="display: none; fill: #aaa; stroke: #aaa; stroke-miterlimit: 10;" data-active="1" />
        <path id="filling-amalgam-buccal" d="M19.5,50.3c2-.3,3.4-2.7,2.9-4.2-.6-1.5-4-1.3-5.4-.2-2,1.5-.1,4.4,2.4,4.4h.2-.1Z" style="display: none; fill: #aaa; stroke: #aaa; stroke-miterlimit: 10;" data-active="1" />
        <path id="filling-amalgam-mesial" d="M27.1,45c-3.9,1.6,0,5,1,7.3.5.8.9,1.9,2,2.2,2.7.9,5.2-.5,5.4-2.8-.2-2.1-1.1-4.3-1.5-6.5-.4-.8-1.2-6.2-2.9-4.3-1,1.4-2,3.2-3.7,4h-.3Z" style="display: none; fill: #aaa; stroke: #aaa; stroke-miterlimit: 10;" data-active="1" />
        <path id="filling-amalgam-distal" d="M9.8,53.5c3.6-1.3,1.4-5.3,2.2-7.7.5-2.9,1-6.4-1.4-6.9-1.6-.4-2.7,1-3.1,2.1-1.4,3.1-6.5,14.5,2,12.6h.3Z" style="display: none; fill: #aaa; stroke: #aaa; stroke-miterlimit: 10;" data-active="1" />
        </g>
      <g id="composite" data-active="1">
        <path id="filling-composite-occlusal" d="M9.8,58.3c-1.2,2.3.4,4,3.4,3.6,2.7-.2,5.2-1.4,7.9-1.6,2.9-.5,9.6,2.5,8.7-1.9-.6-3.7-4.2-5.4-9.2-5.3-4.6,0-8.9,1.7-10.6,5v.2s-.2,0-.2,0Z" style="display: none; fill: #feffbf; stroke: #feffbf; stroke-miterlimit: 10;" data-active="1" />
        <path id="filling-composite-buccal" d="M19.5,50.3c2-.3,3.4-2.7,2.9-4.2-.6-1.5-4-1.3-5.4-.2-2,1.5-.1,4.4,2.4,4.4h.2-.1Z" style="display: none; fill: #feffbf; stroke: #feffbf; stroke-miterlimit: 10;" data-active="1" />
        <path id="filling-composite-mesial" d="M27.1,45c-3.9,1.6,0,5,1,7.3.5.8.9,1.9,2,2.2,2.7.9,5.2-.5,5.4-2.8-.2-2.1-1.1-4.3-1.5-6.5-.4-.8-1.2-6.2-2.9-4.3-1,1.4-2,3.2-3.7,4h-.3Z" style="display: none; fill: #feffbf; stroke: #feffbf; stroke-miterlimit: 10;" data-active="1" />
        <path id="filling-composite-distal" d="M9.8,53.5c3.6-1.3,1.4-5.3,2.2-7.7.5-2.9,1-6.4-1.4-6.9-1.6-.4-2.7,1-3.1,2.1-1.4,3.1-6.5,14.5,2,12.6h.3Z" style="display: none; fill: #feffbf; stroke: #feffbf; stroke-miterlimit: 10;" data-active="1" />
        </g>
      <g id="gic" data-active="1">
        <path id="filling-gic-occlusal" d="M9.8,58.3c-1.2,2.3.4,4,3.4,3.6,2.7-.2,5.2-1.4,7.9-1.6,2.9-.5,9.6,2.5,8.7-1.9-.6-3.7-4.2-5.4-9.2-5.3-4.6,0-8.9,1.7-10.6,5v.2s-.2,0-.2,0Z" style="display: none; fill: #f9ae94; stroke: #f99; stroke-miterlimit: 10;" data-active="1" />
        <path id="filling-gic-buccal" d="M19.5,50.3c2-.3,3.4-2.7,2.9-4.2-.6-1.5-4-1.3-5.4-.2-2,1.5-.1,4.4,2.4,4.4h.2-.1Z" style="display: none; fill: #f9ae94; stroke: #f99; stroke-miterlimit: 10;" data-active="1" />
        <path id="filling-gic-mesial" d="M27.1,45c-3.9,1.6,0,5,1,7.3.5.8.9,1.9,2,2.2,2.7.9,5.2-.5,5.4-2.8-.2-2.1-1.1-4.3-1.5-6.5-.4-.8-1.2-6.2-2.9-4.3-1,1.4-2,3.2-3.7,4h-.3Z" style="display: none; fill: #f9ae94; stroke: #f99; stroke-miterlimit: 10;" data-active="1" />
        <path id="filling-gic-distal" d="M9.8,53.5c3.6-1.3,1.4-5.3,2.2-7.7.5-2.9,1-6.4-1.4-6.9-1.6-.4-2.7,1-3.1,2.1-1.4,3.1-6.5,14.5,2,12.6h.3Z" style="display: none; fill: #f9ae94; stroke: #f99; stroke-miterlimit: 10;" data-active="1" />
        </g>
      <g id="temporary" data-active="1">
        <path id="filling-temporary-occlusal" d="M9.8,58.3c-1.2,2.3.4,4,3.4,3.6,2.7-.2,5.2-1.4,7.9-1.6,2.9-.5,9.6,2.5,8.7-1.9-.6-3.7-4.2-5.4-9.2-5.3-4.6,0-8.9,1.7-10.6,5v.2s-.2,0-.2,0Z" style="display: none; fill: #fff; stroke: #eee; stroke-miterlimit: 10;" data-active="1" />
        <path id="filling-temporary-buccal" d="M19.5,50.3c2-.3,3.4-2.7,2.9-4.2-.6-1.5-4-1.3-5.4-.2-2,1.5-.1,4.4,2.4,4.4h.2-.1Z" style="display: none; fill: #fff; stroke: #eee; stroke-miterlimit: 10;" data-active="1" />
        <path id="filling-temporary-mesial" d="M27.1,45c-3.9,1.6,0,5,1,7.3.5.8.9,1.9,2,2.2,2.7.9,5.2-.5,5.4-2.8-.2-2.1-1.1-4.3-1.5-6.5-.4-.8-1.2-6.2-2.9-4.3-1,1.4-2,3.2-3.7,4h-.3Z" style="display: none; fill: #fff; stroke: #eee; stroke-miterlimit: 10;" data-active="1" />
        <path id="filling-temporary-distal" d="M9.8,53.5c3.6-1.3,1.4-5.3,2.2-7.7.5-2.9,1-6.4-1.4-6.9-1.6-.4-2.7,1-3.1,2.1-1.4,3.1-6.5,14.5,2,12.6h.3Z" style="display: none; fill: #fff; stroke: #eee; stroke-miterlimit: 10;" data-active="1" />
        </g>
      </g>
    <g id="caries" data-active="1">
      <path id="caries-subcrown" d="M9.5,38.6c.8,1.3,5.8-4.1,7.2-4.7,2.3-1.8,6.3-4.8,4.7-7.3-2.5-2.7-8.9-.5-10.9,2.1-.8,1.2-.8,2.2-.9,3.6,0,1.7-.3,5-.1,6.3h0Z" style="display: none; fill: #0a1018; stroke: #000; stroke-miterlimit: 10;" data-active="1" />
      <path id="caries-buccal" d="M15.8,49.8c.7.6,1.9.9,2.9.9,1.6,0,2.9-.7,3.6-1.9s.5-.8.5-1.3c-.6-2.5-7.6-1.6-8.5-.6-.5.8.9,2.2,1.5,2.8h0Z" style="display: none; fill: #0a1018; stroke: #000; stroke-miterlimit: 10;" data-active="1" />
      <g id="caries-mesial" style="display: none;" data-active="1">
        <path id="mesial-shape" d="M29.1,38.7c-4.5-.2-4.4,10.1-2.6,11.6,1.7,2.7,6.7,2.6,7.9-.7.9-2.5-1.9-9.9-5.1-10.9,0,0-.2,0-.2,0Z" style="fill: #0a1018; stroke: #000; stroke-miterlimit: 10;" data-active="1" />
        <path id="mesial-patch2" d="M29.8,43.8c4,0-1.2-4.3-2.2-1.6-.4.9,1,1.7,1.9,1.6h.4,0Z" style="fill: #fff;" data-active="1" />
        <path id="mesial-patch1" d="M28.4,49c1.7,1.3,5.7-.7,2.6-1.6-2-.5-3.1.6-2.6,1.5h0Z" style="fill: #fff;" data-active="1" />
        </g>
      <g id="caries-distal" style="display: none;" data-active="1">
        <path id="distal-shape" d="M8.2,53.9c2.4-.3,3.4-4.6,3.9-6.7.7-3.1.6-6.8-2.9-6.5-4.4.7-5.2,12.3-1.1,13.2,0,0,.1,0,0,0h0Z" style="fill: #0a1018; stroke: #000; stroke-miterlimit: 10;" data-active="1" />
        <path id="distal-patch2" d="M10,44.3c.9-.5.6-2.4-.5-2.3s-.9,2.7.2,2.3h.3Z" style="fill: #fff;" data-active="1" />
        <path id="distal-patch1" d="M7.6,50.8c0,.3.6.5,1,.6.2,0,.7.2.7,0-.2-.5-1-1.5-1.4-1.8-.7-.3-.5.9-.4,1.2h0Z" style="fill: #fff;" data-active="1" />
        </g>
      <g id="caries-occlusal" style="display: none;" data-active="1">
        <path id="occlusal-shape" d="M11.7,60c1.7,1.7,4.4,1,6.9.4,1.7-.4,3.2-.4,5.1,0,4.9,1,7.6-.3,6.1-4.4-1.7-3.7-6.4-3.8-10.2-3.7-5.7-.2-12.1,2.7-8,7.6h.1,0Z" style="fill: #0a1018; stroke: #000; stroke-miterlimit: 10;" data-active="1" />
        <path id="occlusal-patch2" d="M22.6,57.2c-.9,3,4.1,1.5,4.5,0,.6-.8.2-2-.6-2.3-1.5-.5-3,1-4,2.1h0v.2h.1Z" style="fill: #fff; stroke: #000; stroke-miterlimit: 10; stroke-width: .2px;" data-active="1" />
        <path id="occlusal-patch1" d="M13,57.3c-.1,1.5,1.2,2.6,2,1.2.5-.9.5-3.1-.5-3.1s-1.4.7-1.4,1.8v.2h-.1Z" style="fill: #fff; stroke: #000; stroke-miterlimit: 10; stroke-width: .2px;" data-active="1" />
        </g>
      </g>
    <g id="contact-point" data-active="1">
      <g id="mesial-no-contact-point" style="display: none;" data-active="1">
        <path d="M33.4,46.4c1.1,2.9,2.5,6.1,4,9.2" style="fill: none; stroke: #aaa; stroke-miterlimit: 10; stroke-width: .5px;" data-active="1" />
        <path d="M33.9,56.3c.7-1.9.8-3.1,1.3-4.6.6-1.7,1.1-3.5,1.5-5.4" style="fill: none; stroke: #aaa; stroke-miterlimit: 10; stroke-width: .5px;" data-active="1" />
        </g>
      <g id="distal-no-contact-point" style="display: none;" data-active="1">
        <path d="M2.9,47c.9,3.1,2.2,6.4,3.4,9.7" style="fill: none; stroke: #aaa; stroke-miterlimit: 10; stroke-width: .5px;" data-active="1" />
        <path d="M2.7,56.8c.9-1.8,1-2.9,1.7-4.3.8-1.6,1.4-3.3,1.9-5.1" style="fill: none; stroke: #aaa; stroke-miterlimit: 10; stroke-width: .5px;" data-active="1" />
        </g>
      </g>
    <g id="fissure-sealing" style="display: none;" data-active="1">
      <path id="fissure-sealing-occlusal" d="M11.3,62c1.7.2,6.6-2,9-2.1,1.7,0,5.7,1,7.5,1.1,4.7,0,6.3-2.5,4.8-3-1.7-.5-10.2,1-13.9,1-5.5,0-15.7.2-11.7.8l2,1.7,2.3.4h0Z" style="fill: #3fb6ff; stroke: #3fb6ff; stroke-miterlimit: 10;" data-active="1" />
      </g>
    </g>
  <g id="restorations" data-active="1">
    <g id="implant" style="display: none;" data-active="1">
      <path id="implant-locator-screw" d="M16.8,43.8c.9,1.5,3.8.9,5.4,1,3.2-.5,1.7-4.6,2-7,0-.7.2-1.6-.3-2.1-.2-.3-.7-.4-1-.4-1.5,0-3.4-.2-4.9.2-1.3.3-1.4,1.3-1.4,2.5,0,2-.2,3.9.1,5.7v.2h0Z" style="fill: url(#linear-gradient-16-8); stroke: #c8c9c9; stroke-miterlimit: 10; stroke-width: .2px;" data-active="1" />
      <path id="implant-connector" d="M13.8,37.1h0c.1,1.4,1.1,2.1,1.9,1.7,1.4-.7,1.6-2,3.4-2.1h3.3c.8,0,1.8,1.9,2.9,2.2s1.4-.6,1.3-1.6c0-1.9,0-5.6-.5-5.7s-3.1,0-3.7,0h-4.5c-1,0-2.7-.4-3.5.7-.8,1.1-1,2.9-.8,4l.2.7h0Z" style="fill: url(#linear-gradient-16-9);" data-active="1" />
      <path id="implant-bar" d="M2.4,49.9c7.3.3,26.5,0,34.5,0s3.6-2.2,3.8-4.1.3-3.2-1.3-3.4-6,0-7.9,0c-4.6,0-8.4,0-12.7.2-4.8,0-15.2.2-16,0-1.4.2-2.6.9-2.8,1.9-.2,1.9-.2,5.5,2.3,5.3h.1Z" style="fill: url(#radial-gradient-16-0);" data-active="1" />
      <g id="implant-healing-abutment" style="display: none;" data-active="1">
        <path id="implant-healing-abutment-connector" d="M16.8,36.3c1.7.3,3.7-.2,5.4-.2,3.3,0,4.2-1.2,3.4-5.6-.8-3.9-1.7-9-2.7-13.4-.3-1.1-.6-2.2-1.1-3.1-2.3-4.5-4.3,1.7-4.7,5-.5,3.4-.6,5.9-1.3,9-.6,2.7-2.4,7.7.7,8.3h.3Z" style="fill: #a0a0a0; stroke: #8c8c8c; stroke-miterlimit: 10; stroke-width: .5px;" data-active="1" />
        <path d="M27.4,32.8h-9.2c-1.4,0-5,.2-5,.2,0,0-.4.9-.7,1.7s-.3,1.2-.3,1.8v2.7c.1.3.2.5.2.7h1.1c2.4-.3,4.9-.4,7.3-.4v-.2c.3,0-.7-.2-.9-.2.4.5-1.8,0-2.1,0-.5,0-.7-.5-.7-1v-2.4c0-.6.6-.5.4-.6l-4.1.3c-.4,0-.7.2-1.1,0l2.5-.5c3.2-.6,6.4-.3,9.5,0,.6,0,1.2,0,1.9.2h.5c.2,0,.4,0,.5.2-.2-.2,0-2.5,0-2.5h.2Z" style="fill: #475563;" data-active="1" />
        <path d="M21,39.3v-.2h.2c.1,0,0,0,0-.2.5,0,2,.3,2.6.2.1.3.5.2.7.2.6,0,2.3.2,2.5-.9s.2-1.8,0-2.7-.3-.4-.1-.6h.4s.2,0,.2.4v3.6c0,.2-.1.4-.2.6-.9,0-1.8-.2-2.8-.3h-3.6,0Z" style="fill: #8c8c8c;" data-active="1" />
        <path d="M20.7,35.1c-.1-.2-.3-.2-.5-.2l-.9.2c-.1-.2-.4-.2-.6,0-.1-.2-.9,0-1,0l-4.1.3c-.4,0-.7.2-1.1,0l2.5-.5c3.2-.6,6.4-.3,9.5,0,.1.3,0,.2.3.6.2.3.3.2.4.5.1.7,0,1.5,0,2.1s-.3.8-.7.9c-.7,0-2,.2-2.7,0s-1.4-.2-1.4-.6v-.9c-.1-.4,0-1.5,0-2s.5-.7.3-.5h0Z" style="fill: #e8eef0;" data-active="1" />
        <path d="M23.8,39.1h.7c.4-.2.7-.6.7-1v-1.9c0-.6-.9-1.1-1.5-1.1-.3-.4.9,0,.8-.2.6,0,1.2,0,1.9.2s.3,0,.5,0c-.2.2,0,.4.1.6.1.9.1,1.8,0,2.7s-1.9,1-2.5.9-.6,0-.7-.2h0Z" style="fill: #a0a0a0;" data-active="1" />
        <path d="M17.7,35c.1,0,.9-.2,1,0,.2-.2.5-.2.6,0,0,0-.2.2-.2.3,0,1-.2,1.9,0,2.9s.6.6,1,.7c.4.5-1.8,0-2.1,0-.5,0-.7-.5-.7-1v-2.4c0-.8.6-.5.4-.6h0Z" style="fill: #6f7c86;" data-active="1" />
        <path d="M21,39.1c.3,0-1.1-.3-.9-.2-.4,0-.9,0-1-.7-.2-.9,0-1.9,0-2.9s.2-.2.2-.3l.9-.2c.2,0,.4,0,.5.2-.2.2-.3.4-.3.7v2.5c0,.9.5.6.7.7v.2h-.2,0Z" style="fill: #a0a0a0;" data-active="1" />
        </g>
      <g id="implant-base" data-active="1">
        <path d="M17,32.8c-.1-1.3-.2-2.7.2-4h5.6c.4,1,.2,2.9.2,4h-6Z" style="fill: #bbc3c6;" data-active="1" />
        <path d="M18.2,6.4c-.2,0,0-2.2,0-2.4.2-1.3.9-2.4,1.9-3,1-.6.2,0,.2-.3,1.7,0,3.3,1.1,3.8,3.1.5,2,0,1.2.1,1.8h-1.3c0-.8,0-2.1-.8-2.3s-.7,0-.7.3c0,.8,0,1.5.2,2.1l-3.5.6h0Z" style="fill: #bac3c7;" data-active="1" />
        <path d="M17.2,28.8c-.4,1.3-.3,2.7-.2,4l-3.8.2c0-.7-.3-4.2.7-4,1.1-.2,2.2-.2,3.3-.2Z" style="fill: #a0a4a5;" data-active="1" />
        <path d="M17.8,28.3v-2.5c1.5-.3,3-.7,4.6-.7l.2,3.3h-4.8Z" style="fill: #bac3c6;" data-active="1" />
        <path d="M20.4.6s-.1.2-.2.3c-1,.6-1.6,1.7-1.9,3-.3,1.3-.2,2.4,0,2.4l-2.4.6c.1-1.1,0-2.2.3-3.3s1.1-2.2,2.1-2.7,1.5-.4,2.2-.4h-.1Z" style="fill: #9ca3a6;" data-active="1" />
        <path d="M23,32.8c0-1.1.2-3-.2-4h2.7c.2,1,.3,3,0,4h-2.5Z" style="fill: #e8eef0;" data-active="1" />
        <path d="M17.7,25.7v2.5c.1,0-3.4.2-3.4.2,0-.7,0-1.4.1-2,1.1-.4,2.2-.5,3.2-.8h.1,0Z" style="fill: #9ea3a4;" data-active="1" />
        <path d="M25.5,32.9c.2-1,.2-3,0-4h1.4c.8.2.7,3.3.5,4h-1.9Z" style="fill: #bcc4c7;" data-active="1" />
        <path d="M22.6,28.3l-.2-3.3c.6-.2,1.3-.2,1.9-.2l.2,3.6h-1.9Z" style="fill: #e3eaeb;" data-active="1" />
        <path d="M24.5,28.4l-.2-3.6c.5-.1,1.1-.1,1.7-.1l.3,3.8h-1.8Z" style="fill: #b8c2c4;" data-active="1" />
        <path d="M17.8,23.9v-1.1c1.5-.3,3-.6,4.5-.7v1.1l-4.5.7Z" style="fill: #b7c0c3;" data-active="1" />
        <path d="M17.9,21c-.1-.4,0-.8,0-1.2,1.5-.3,2.9-.5,4.3-.7v1.2l-4.4.7h0Z" style="fill: #b9c0c4;" data-active="1" />
        <path d="M18,18.1c-.3-.4,0-.5-.2-1.1,1.4-.4,2.8-.6,4.3-.8v1.2c-1.3.2-2.7.4-4.1.7Z" style="fill: #b8c0c3;" data-active="1" />
        <path d="M17.9,15.1v-1.1c1.3-.3,2.7-.6,4.1-.7v1.1l-4.1.7Z" style="fill: #b7bfc3;" data-active="1" />
        <path d="M18,12.2v-1.1c1.3-.3,2.6-.5,3.9-.7v1.2l-4,.6h.1Z" style="fill: #b9c1c5;" data-active="1" />
        <path d="M18,8.2c1.2-.3,2.4-.6,3.7-.7v1.2c-1.2.1-2.4.4-3.7.6v-1.1Z" style="fill: #bac3c5;" data-active="1" />
        <path d="M17.8,25.2c0-.2,0-.5-.1-.7-.2.2-.5.3-.6,0,1.7-.4,3.5-.7,5.3-.9.1.2,0,.5,0,.8l-4.6.7h0Z" style="fill: #b7c0c3;" data-active="1" />
        <path d="M17.9,22.3c-.2-.2,0-.5,0-.8,1.5-.3,3-.6,4.5-.7v.8l-4.4.7s-.1,0,0,0h-.1Z" style="fill: #b9c0c3;" data-active="1" />
        <path d="M17.8,22.8v1.1l-3.2.8v-1.1c1-.4,2.1-.5,3.1-.7h.1Z" style="fill: #9a9fa1;" data-active="1" />
        <path d="M18,19.3c-.1-.3-.2-.4-.2-.7,1.5-.3,2.9-.6,4.3-.7v.8l-4.2.7h.1Z" style="fill: #bac0c3;" data-active="1" />
        <path d="M17.9,19.8c0,.4-.1.8,0,1.2l-3.1.7v-1.2c1-.4,2-.5,3-.7,0,0,.1,0,0,0h.1Z" style="fill: #999fa1;" data-active="1" />
        <path d="M17.9,16.4v-.8c1.4-.3,2.8-.5,4.2-.7v.8s-4.2.7-4.2.7Z" style="fill: #bac1c4;" data-active="1" />
        <path d="M17.9,13.5v-.7c1.3-.3,2.7-.5,4-.7v.8l-4.1.6s.1,0,.1,0Z" style="fill: #b9c0c3;" data-active="1" />
        <path d="M18,10.6v-.8c1.2-.4,2.5-.5,3.8-.7,0,.2.1.5,0,.8l-3.9.7h.1Z" style="fill: #bbc2c4;" data-active="1" />
        <path d="M17.8,17c.1.6,0,.7.2,1.1l-2.9.7v-1.1c.9-.5,1.8-.4,2.7-.6h0Z" style="fill: #9ba0a2;" data-active="1" />
        <path d="M17,24.6c.1.2.4.2.6,0,.1.2.1.5.1.7-1.2.3-2.4.5-3.6.9s-.4-.2-.5-.4c0-.6,2.7-1,3.2-1.1h.2,0Z" style="fill: #a8aeb1;" data-active="1" />
        <path d="M17.8,21.5v.8l-3.5.9c-.2,0-.4-.3-.4-.4,0-.6,3.3-1.1,3.8-1.2h.1Z" style="fill: #a6abad;" data-active="1" />
        <path d="M17.9,14v1.1l-2.7.7v-1.2c.9-.4,1.8-.5,2.6-.6,0,0,.1,0,0,0h.1Z" style="fill: #9ba0a3;" data-active="1" />
        <path d="M21.7,5.8c-.1-.7-.2-1.4-.2-2.1s.5-.4.7-.3c.8.2.7,1.5.8,2.3l-1.3.2h0Z" style="fill: #e4e9ea;" data-active="1" />
        <path d="M18.1,7.7v-.8c1.2-.3,2.4-.5,3.7-.6v.8l-3.7.6Z" style="fill: #bcc2c4;" data-active="1" />
        <path d="M17.8,18.6c0,.3,0,.5.2.7-1.2.2-2.2.5-3.4.8s-.4-.2-.4-.3c-.1-.7,3.1-1.1,3.6-1.2Z" style="fill: #a6abad;" data-active="1" />
        <path d="M18,11.1v1.1l-2.5.7c0-.3,0-.9.1-1.1.8-.4,1.6-.4,2.4-.6h0Z" style="fill: #9da2a4;" data-active="1" />
        <path d="M17.9,15.7v.8l-3.2.8c-.2,0-.3-.3-.3-.4s0-.3.2-.4c1.1-.4,2.2-.6,3.2-.8h.1Z" style="fill: #a5aaac;" data-active="1" />
        <path d="M18,8.2v1.1l-2.4.6v-1.1c.8-.3,1.6-.4,2.3-.6h.1Z" style="fill: #9ca1a3;" data-active="1" />
        <path d="M17.9,12.8v.7l-2.9.8c-.2,0-.4-.2-.4-.3-.2-.7,3-1.1,3.3-1.1h0Z" style="fill: #a5aaac;" data-active="1" />
        <path d="M17.9,9.8v.8l-2.8.7c-.2,0-.3-.2-.4-.3s0-.4.3-.4c1-.3,1.9-.6,2.9-.7h0Z" style="fill: #a2a7a9;" data-active="1" />
        <path d="M18.1,6.9v.8c-.9.2-1.7.4-2.6.7s-.4-.1-.4-.3,0-.3.2-.4c.9-.4,1.8-.5,2.8-.8Z" style="fill: #a7abae;" data-active="1" />
        <path d="M22.4,23.2v-1.1c.5-.2,1.1-.2,1.7-.2.1.4,0,.8,0,1.2l-1.8.2h0Z" style="fill: #e2e9eb;" data-active="1" />
        <path d="M22.3,20.3v-1.2l1.8-.2v1.1c-.5.2-1.1.2-1.7.3h0Z" style="fill: #e1e8e9;" data-active="1" />
        <path d="M22.1,16.2c.6,0,1.2-.2,1.8-.2v1.2l-1.7.2v-1.2h0Z" style="fill: #e3e9ea;" data-active="1" />
        <path d="M22,14.5v-1.1c.5,0,1.1-.2,1.6-.2.2.4,0,.8.2,1.1-.6,0-1.2,0-1.8.2Z" style="fill: #e3e9ea;" data-active="1" />
        <path d="M24.2,23v-1.2c.5,0,1.1-.1,1.7-.1,0,.4.1.8.1,1.2-.6.2-1.2,0-1.7.1h-.1Z" style="fill: #b7bfc3;" data-active="1" />
        <path d="M21.9,11.6c-.1-.4,0-.8,0-1.2l1.6-.2v1.1c-.4.1-1,.2-1.5.2h-.1Z" style="fill: #e4eaeb;" data-active="1" />
        <path d="M24.3,24.3v-.8c.5,0,2.5-.5,2.4.3s-1.8.5-2.4.5Z" style="fill: #b4bdc0;" data-active="1" />
        <path d="M24.2,21.4v-.8c.4,0,2.4-.5,2.3.2s-.2.4-.4.4h-1.9s0,.2,0,.2Z" style="fill: #b8c0c4;" data-active="1" />
        <path d="M21.7,7.5c.5,0,1-.2,1.5-.2.1.4,0,.8.2,1.1-.5.1-1,.2-1.6.2v-1.2h-.1Z" style="fill: #e3e8e9;" data-active="1" />
        <path d="M24.1,20v-1.1c.4,0,.9-.1,1.4-.1,0,.4.1.8,0,1.1-.5.2-1.1,0-1.5.1h.1Z" style="fill: #b8c0c3;" data-active="1" />
        <path d="M23.9,18.5v-.8c.4,0,2.2-.5,2.2.2s-1.7.5-2.2.6Z" style="fill: #b5bdc1;" data-active="1" />
        <path d="M23.9,17.2v-1.2c.5,0,.9-.2,1.4-.1v1.1c-.5.1-1,0-1.5.1h.1Z" style="fill: #b8c1c5;" data-active="1" />
        <path d="M23.8,15.5c-.1-.2,0-.5,0-.8.5,0,2.1-.4,2.2.2s-1.5.6-2.1.6h-.1Z" style="fill: #bac0c3;" data-active="1" />
        <path d="M23.6,12.6c-.1-.2,0-.5-.1-.8.5,0,2.1-.5,2.1.2s-1.5.5-2,.6Z" style="fill: #b6bec2;" data-active="1" />
        <path d="M23.7,14.3c-.1-.4,0-.8-.2-1.1.5,0,.9-.2,1.4-.1,0,.4.1.8,0,1.1h-1.3.1Z" style="fill: #b9c2c6;" data-active="1" />
        <path d="M22.4,24.5v-.8c.7,0,1.3-.2,2-.2v.8l-1.9.2h-.1Z" style="fill: #e5e9eb;" data-active="1" />
        <path d="M23.4,9.7v-.8c.3,0,2.2-.5,2,.3s-1.4.4-1.9.5h-.1Z" style="fill: #bbc2c5;" data-active="1" />
        <path d="M23.5,11.3v-1.1c.3,0,.7-.1,1.2,0,0,.3.1.7,0,1.1-.4.3-.9,0-1.3.1h0Z" style="fill: #b6bfc2;" data-active="1" />
        <path d="M22.3,21.5v-.8c.6,0,1.2-.2,1.8-.2v.8l-1.9.2h.1Z" style="fill: #e6ebec;" data-active="1" />
        <path d="M23.4,8.5c-.2-.3,0-.8-.2-1.1.4,0,.8-.2,1.3,0,0,.3.1.7,0,1.1-.4.2-.8,0-1.2.1h.1Z" style="fill: #bdc3c6;" data-active="1" />
        <path d="M22.2,18.6v-.8c.6,0,1.2-.3,1.8-.2v.8l-1.8.2Z" style="fill: #e6eaeb;" data-active="1" />
        <path d="M23.2,6.9v-.8c.4,0,2.1-.5,1.9.3s-1.4.4-1.9.4h0Z" style="fill: #bfc4c7;" data-active="1" />
        <path d="M22.1,15.7v-.8l1.7-.2v.8l-1.8.2h0Z" style="fill: #e5eaeb;" data-active="1" />
        <path d="M21.9,12.8v-.8l1.7-.2c0,.3,0,.5.1.8l-1.7.2h-.1Z" style="fill: #e6ebeb;" data-active="1" />
        <path d="M21.8,9.9v-.8c.5,0,1-.2,1.6-.2v.8l-1.6.2Z" style="fill: #e6eaeb;" data-active="1" />
        <path d="M21.7,6.3c.5,0,1-.2,1.5-.2v.8l-1.5.2v-.8Z" style="fill: #e1e5e6;" data-active="1" />
        </g>
      </g>
    <g id="prosthesis-implant" data-active="1">
      <g id="prosthesis-implant-gum" style="display: none; opacity: .5;" data-active="1">
        <path d="M40,54.2v-11.7c0-.8-1-1.5-2.3-1.5H4c-1.2,0-2.2.6-2.3,1.4-.1,2.7-.4,8.7-.4,11.7s1,1.5,2.3,1.5h34.1c6.9,0,2.3-.7,2.3-1.5h0Z" style="fill: url(#radial-gradient-16-1);" data-active="1" />
        <path d="M39.9,54.2c0-3.2-.4-8.6-.5-11.7-.3-1.2-2.2-.9-3.2-.9h-9.7c-4.5,0-15-.5-19.3-.4h-3.2c-.7,0-1.5.8-1.3,1.5h0c0,3.7,0,7.7-.4,11.5,0,0,0,.2,0,0l.2.2c.5.4,2,.3,2.6.3,2,0,7.6.2,9.7.3,4.3,0,15.2.4,19.3.5h3.2c.9,0,2.3-.3,2.4-1.4h.2ZM40.1,54.2c0,1.2-1.6,1.6-2.6,1.6h-3.2c-4.1,0-15.1.4-19.3.5-3,0-8.4.2-11.3.3-1.5,0-3.5-.9-3.4-2.7,0-3.8,0-7.7.4-11.5,0-.8.8-1.6,1.6-1.6s1.3.2,1.9.2h9.7c6.1,0,16.5-.5,22.6-.5s4.5,0,4.3,2.5c0,2.9-.3,8.3-.4,11.3h-.3Z" style="fill: #ffa46a;" data-active="1" />
        </g>
      <path id="prosthesis-implant-crown" d="M25.4,49.8c-3.3-2.6-8.8-2.1-10.9.9-.7,1.4-1.5,2.9-2,4.3-.9,2.3-2,7.1,1.8,8.3,2.5.7,5.2-1,7.8-.5,1.1,0,2,.4,3,.3,6.7-1.1,3.4-7,2-10.7-.3-.8-.9-1.7-1.5-2.5h-.2Z" style="display: none; fill: #f9ae94; stroke: #0a1018; stroke-miterlimit: 10;" data-active="1" />
      </g>
    <g id="prosthesis" data-active="1">
      <path id="prosthesis-connector" d="M38,51.9c2.2-.9,3.3-3.7,2.1-5.7-1.3-2.3-4.5-2.6-7-2.7H7.7c-8.4,0-3.2.2-4.5.7-3.1,1-4.4,5.3-2.1,7.6,2,1.7,5.8,1.3,9.1,1.4,7.5,0,12.3-.2,21.8-.3,2,0,4.2-.2,5.9-.9h.2,0Z" style="display: none; fill: url(#linear-gradient-16-10); stroke: #1b3f1c; stroke-miterlimit: 10; stroke-width: .2px;" data-active="1" />
      <path id="prosthesis-crown" d="M28.9,33.1c-5.7-5.7-15.3-4.6-19,1.9-1.2,3-2.6,6.2-3.5,9.2-1.5,5-3.5,15.3,3.1,17.8,4.4,1.4,9-2.2,13.5-1.1,1.9.3,3.5.9,5.2.7,11.7-2.4,5.9-15.1,3.4-23.1-.6-1.8-1.6-3.7-2.6-5.3h-.1Z" style="display: none; fill: #f9ae94; stroke: #0a1018; stroke-miterlimit: 10;" data-active="1" />
      </g>
    <g id="telescope" data-active="1">
      <path id="telescope-bridge-connector" d="M38,51.9c2.2-.9,3.3-3.7,2.1-5.7-1.3-2.3-4.5-2.6-7-2.7H7.7c-8.4,0-3.2.2-4.5.7-3.1,1-4.4,5.3-2.1,7.6,2,1.7,5.8,1.3,9.1,1.4,7.5,0,12.3-.2,21.8-.3,2,0,4.2-.2,5.9-.9h.2,0Z" style="display: none; fill: #0051bf; stroke: #1b3f1c; stroke-miterlimit: 10; stroke-width: .2px;" data-active="1" />
      <g id="telescope-crown" style="display: none;" data-active="1">
        <path id="telescope-crown-outside" d="M28.9,33.1c-5.7-5.7-15.3-4.6-19,1.9-1.3,2.6-2.5,6-3.5,9.2-1.5,5-3.5,15.3,3.1,17.8,4.4,1.4,9-2.2,13.5-1.1,1.9.3,3.5.9,5.2.7,11.7-2.4,5.9-15.1,3.4-23.1-.6-1.8-1.6-3.7-2.6-5.3h-.1Z" style="fill: #0051bf; stroke: #0a1018; stroke-miterlimit: 10;" data-active="1" />
        <path id="telescope-crown-inside" d="M26.9,35.9c-4.5-4.4-12-3.6-14.8,1.5-1.1,2.5-2.1,4.8-2.7,7.2-1.2,3.9-2.7,11.9,2.5,13.9,3.4,1.1,7-1.7,10.6-.9,1.5.2,2.7.7,4.1.6,9.1-1.8,4.6-11.8,2.6-18-.5-1.4-1.2-2.9-2-4.1h0l-.2-.2s-.1,0-.1,0Z" style="fill: #aaa; stroke: #0a1018; stroke-miterlimit: 10;" data-active="1" />
        </g>
      </g>
    <g id="zircon" data-active="1">
      <path id="zircon-bridge-connector" d="M38,51.9c2.2-.9,3.3-3.7,2.1-5.7-1.3-2.3-4.5-2.6-7-2.7H7.7c-8.4,0-3.2.2-4.5.7-3.1,1-4.4,5.3-2.1,7.6,2,1.7,5.8,1.3,9.1,1.4,7.5,0,12.3-.2,21.8-.3,2,0,4.2-.2,5.9-.9h.2,0Z" style="display: none; fill: #feffbf; stroke: #1b3f1c; stroke-miterlimit: 10; stroke-width: .2px;" data-active="1" />
      <path id="zircon-crown" d="M28.9,33.1c-5.7-5.7-15.3-4.6-19,1.9-1.2,3-2.5,6.1-3.5,9.2-1.5,5-3.5,15.3,3.1,17.8,4.4,1.4,9-2.2,13.5-1.1,1.9.3,3.5.9,5.2.7,11.7-2.4,5.9-15.1,3.4-23.1-.6-1.8-1.6-3.7-2.6-5.3h-.1Z" style="display: none; fill: #feffbf; stroke: #0a1018; stroke-miterlimit: 10;" data-active="1" />
      </g>
    <g id="metal" data-active="1">
      <path id="metal-bridge-connector" d="M38,51.9c2.2-.9,3.3-3.7,2.1-5.7-1.3-2.3-4.5-2.6-7-2.7H7.7c-8.4,0-3.2.2-4.5.7-3.1,1-4.4,5.3-2.1,7.6,2,1.7,5.8,1.3,9.1,1.4,7.5,0,12.3-.2,21.8-.3,2,0,4.2-.2,5.9-.9h.2,0Z" style="display: none; fill: #0051bf; stroke: #1b3f1c; stroke-miterlimit: 10; stroke-width: .2px;" data-active="1" />
      <path id="metal-crown" d="M28.9,33.1c-5.7-5.7-15.3-4.6-19,1.9-1.2,3-2.5,6-3.5,9.2-1.5,5-3.5,15.3,3.1,17.8,4.4,1.4,9-2.2,13.5-1.1,1.9.3,3.5.9,5.2.7,11.7-2.4,5.9-15.1,3.4-23.1-.6-1.8-1.6-3.7-2.6-5.3h-.1Z" style="display: none; fill: #0051bf; stroke: #0a1018; stroke-miterlimit: 10;" data-active="1" />
      </g>
    <g id="emax" data-active="1">
      <path id="emax-crown" d="M27.7,34.1c-5.1-5.1-13.7-4.1-17,1.7-1.1,2.7-2.2,5.4-3.1,8.2-1.3,4.5-3.1,13.7,2.8,15.9,3.9,1.3,8-2,12.1-1,1.7.3,3.1.8,4.6.6,10.5-2.1,5.3-13.5,3-20.6-.5-1.6-1.4-3.3-2.3-4.7h-.1Z" style="display: none; fill: url(#radial-gradient-16-2); stroke: #0a1018; stroke-miterlimit: 10;" data-active="1" />
      </g>
    <g id="temporary-restorations" data-active="1">
      <path id="temporary-bridge-connector" d="M38,51.9c2.2-.9,3.3-3.7,2.1-5.7-1.3-2.3-4.5-2.6-7-2.7H7.7c-8.4,0-3.2.2-4.5.7-3.1,1-4.4,5.3-2.1,7.6,2,1.7,5.8,1.3,9.1,1.4,7.5,0,12.3-.2,21.8-.3,2,0,4.2-.2,5.9-.9h.2,0Z" style="display: none; fill: #fff; stroke: #1b3f1c; stroke-miterlimit: 10; stroke-width: .2px;" data-active="1" />
      <path id="temporary-crown" d="M28.9,33.1c-5.7-5.7-15.3-4.6-19,1.9-1.2,3-2.5,6-3.5,9.2-1.5,5-3.5,15.3,3.1,17.8,4.4,1.4,9-2.2,13.5-1.1,1.9.3,3.5.9,5.2.7,11.7-2.4,5.9-15.1,3.4-23.1-.6-1.8-1.6-3.7-2.6-5.3h-.1Z" style="display: none; fill: #fff; stroke: #0a1018; stroke-miterlimit: 10;" data-active="1" />
      </g>
    </g>
  <g id="specials" data-active="1">
    <g id="missing-closed" style="display: none;" data-active="1">
      <path d="M1.9,3.7c21.7,16.7,19.3,38.1,0,55.3" style="fill: none; stroke: #000; stroke-miterlimit: 10; stroke-width: 2px;" data-active="1" />
      <path d="M35.1,57.6c-21.8-16.5-19.7-38-.6-55.3" style="fill: none; stroke: #000; stroke-miterlimit: 10; stroke-width: 2px;" data-active="1" />
      </g>
    <g id="extraction-plan" style="display: none;" data-active="1">
      <path d="M4.1,55.4C5.7,51.4,37.4,3.3,38.3,1.2" style="fill: none; stroke: #b70000; stroke-miterlimit: 10; stroke-width: 3px;" data-active="1" />
      <path d="M4.5,1.7c3.2,3.5,23.4,39.8,27.6,48.5.7,1.5,1.4,3,2.4,4.3" style="fill: none; stroke: #b70000; stroke-miterlimit: 10; stroke-width: 3px;" data-active="1" />
      </g>
    <g id="crown-needed" style="display: none;" data-active="1">
      <path id="crown-needed-shape" d="M28.7,32.3c-5.7-5.8-15.3-4.6-18.9,1.9-1.6,3-2.7,6-3.5,9.3-1.5,5-3.5,15.4,3.1,18,4.3,1.4,8.9-2.2,13.4-1.1,1.9.3,3.5.9,5.2.7,11.7-2.4,5.8-15.2,3.4-23.3-.6-1.8-2.7-5.5-2.7-5.5Z" style="fill: #c83014; stroke: #000; stroke-miterlimit: 10;" data-active="1" />
      <path id="crown-needed-path" d="M17.2,30.1c-2.5,3.6-5,7.3-7.5,10.8-.9,1.5-3.6,3.3-2.5,5.1,1.4,1.2,2.5-1.3,3.2-2.2,3.7-4.6,6.2-10.6,12.2-13.5.5-.2.9-.2,1,0,.2.2.1.7,0,1.2-2.5,7.2-12,14.1-14.6,21-5.6,13,1.8,5.4,5.5-1.2,3.1-4.8,7.8-12.7,12.3-16.7,2.9-1.8,2,2.7,1.5,4.1-1.6,6.8-12.1,12.6-12.3,19.7,1.1,5.8,9.9-10.1,11.9-12.3.8-1,3.1-3.4,3.2-1.1-.1,3.9-2.9,8.1-5.1,11.1-.7,1.1-1.5,2.2-1.6,3.4.8,2.6,6.8-4.7,7.7-5.7" style="fill: #feffbf; stroke: #1b3f1c; stroke-miterlimit: 10;" data-active="1" />
      </g>
    <g id="crown-replace" style="display: none;" data-active="1">
      <path id="crown-replace-shape" d="M28.7,32.3c-5.7-5.8-15.3-4.6-18.9,1.9-1.6,3-2.7,6-3.5,9.3-1.5,5-3.5,15.4,3.1,18,4.3,1.4,8.9-2.2,13.4-1.1,1.9.3,3.5.9,5.2.7,11.7-2.4,5.8-15.2,3.4-23.3-.6-1.8-2.7-5.5-2.7-5.5Z" style="fill: none; stroke: #c83014; stroke-miterlimit: 10; stroke-width: 3px;" data-active="1" />
      </g>
    <g id="parapulpal-pin" style="display: none;" data-active="1">
      <g id="parapulpal-pin-shape" data-active="1">
        <path d="M29.5,45.6c.1.5,0,.6,0,.8s0,.6,0,.8c.1.4,0,.6,0,.8.1.3,0,.6,0,.8s0,.5,0,.7v.7c0,0,.1,1,.1,1,0,.4.3.8.9,1.1s.2.2.1.3,0,.2,0,.3,0,.2-.3.3c-1.2.2-2.5.2-3.7,0s-.3,0-.3-.2c0-.2,0-.4,0-.6s.9-.3,1-1,0-.7,0-1.1l.2-5,.2-4.4c0-1.2.2-2.3.4-3.5s0-.2.2-.3c.1.2.1.3.2.5.3,1.2.4,2.4.5,3.6l.3,3.5c0,0,0,.2,0,.2.1.2,0,.5,0,.8Z" style="fill: #0a0a0a;" data-active="1" />
        <path d="M27.9,49.2c-.1,0-.2-.2-.2-.3v-1.9s0-.9,0-.9v-.9s.2-3.9.2-3.9l.2-2.2c0,0,0,0,0,0s.1,0,.1,0v9.3c0,.3,0,.6-.3.8Z" style="fill: #f0edee;" data-active="1" />
        <path d="M28.8,48.6s0,0,0,0v-1.7s0,0,0,0c0-.1,0-.3,0-.4s0-.4,0-.6c0,0,0,0,0-.1,0-.2,0-1.5,0-1.8,0,0,0-.1,0-.2v-2.4c0-.2,0-.4,0-.5v-.8c0,0,0-.5,0-.5,0,0,0-.2,0-.2,0,.2.1.5.1.7,0,.2,0,.3,0,.5l.3,3.4c0,.1,0,.8,0,.9,0,.1,0,.3,0,.4v1c0,0,0,.9,0,.9l.2,1.8v.3s0,0,0,0,0,0-.1,0c-.2-.2-.3-.4-.5-.6Z" style="fill: #eaeaea;" data-active="1" />
        <path d="M28.8,48.6s0-.1-.1-.2l-.2-10.5c0,0,0-.2,0-.3,0,0,.2.7.2.7,0,0,.1.2,0,.2,0,0,0,0,0,0-.1,0,0,.7,0,.8v.5s0,.8,0,.8c0,.2,0,.4,0,.5v2.4c0,0,0,.1,0,.2,0,.4,0,.7,0,1.1s0,.5,0,.7c0,0,0,0,0,.1,0,0,0,.2,0,.3,0,.2,0,.5,0,.7v1.7s0,0,0,0Z" style="fill: #9c9c9c;" data-active="1" />
        <path d="M28,50.3c.2.3.5.6.7.9s0,.3,0,.5c-.2.4-.8.4-1.4.5.9-.7.2-1.1.9-1.9Z" style="fill: #c7c7c7;" data-active="1" />
        <path d="M29.4,50.3c.5.4.3.7.4,1v.2c0,.2.3.5.6.7h-.9c-.7-.2-.8-.8-.7-1s.4-.6.6-.8Z" style="fill: #b5b4b6;" data-active="1" />
        <path d="M28.8,52.3c.4,0,1.7,0,2,.2v.5c-.5-.1-1-.1-1.5-.1s-.4,0-.4-.2,0-.2,0-.4Z" style="fill: #bababa;" data-active="1" />
        <path d="M27.2,52.9c0-.2,0-.3,0-.5.5,0,.9,0,1.3,0,0,.2,0,.4-.2.5s-.8,0-1.2.1Z" style="fill: #cdcdcd;" data-active="1" />
        <path d="M27.4,53.2c.4,0,2.7-.1,2.8,0s0,0,0,0c-.9.1-1.8.1-2.7,0s0,0-.1,0,0,0,0,0Z" style="fill: #9da1a2;" data-active="1" />
        <path d="M27.3,52.4c0,.2,0,.3,0,.5-.2,0-.4,0-.6.1v-.5c.2-.1.5-.1.7-.2Z" style="fill: #8b8d8c;" data-active="1" />
        <path d="M28.2,49.6c.1,0,.2,0,.3.2l-.3.2c0,0-.2,0-.2-.2,0,0,.1-.1.2-.2Z" style="fill: #acaaac;" data-active="1" />
        <path d="M29.1,49.6c0,0,.2,0,.2.1s0,.1-.2.2c-.1,0-.2-.1-.3-.2h.2Z" style="fill: #b2b0b3;" data-active="1" />
        <path d="M27.9,49.8c0,0,.2,0,.2.1,0,0-.1.1-.2.2,0,0-.1,0-.2-.1s0-.1.2-.2Z" style="fill: #e4e1e2;" data-active="1" />
        <path d="M29,49.9c-.2.2-.1.2-.3.3,0-.1,0-.3,0-.4l.3.2Z" style="fill: #8b8989;" data-active="1" />
        <path d="M28,49.4c.1,0,.2,0,.2.1s0,.1-.1.2c0,0-.2,0-.2-.1s0-.2.2-.2Z" style="fill: #e3e3e3;" data-active="1" />
        <path d="M29.2,49.9s.1-.1.2-.1c0,0,.1,0,.2.1s0,.1-.1.2c0,0-.2-.1-.2-.2Z" style="fill: #cacaca;" data-active="1" />
        <path d="M28.3,50c.1,0,.2-.1.3-.2,0,.1,0,.2,0,.4-.1,0-.2-.1-.3-.2Z" style="fill: #7a797b;" data-active="1" />
        <path d="M29.1,49.5c0,0,.1-.1.2-.1,0,0,.1,0,.1.1s0,.2-.1.1-.1,0-.2-.1Z" style="fill: #d2d1d3;" data-active="1" />
        <path d="M28.3,49.5c.1,0,.2-.1.3-.2,0,.1,0,.2,0,.3-.1,0-.2,0-.3-.1Z" style="fill: #7f7e80;" data-active="1" />
        <path d="M28.7,49.6s0-.6,0-.2c0,0,.2,0,.1.1s-.1,0-.2.1Z" style="fill: #7c7b7f;" data-active="1" />
        </g>
      </g>
    </g>
  </svg>
