<?xml version='1.0' encoding='utf-8'?>
<!-- Created by Zoltan Dul in 2026 - free to use with MIT license. Part of React Odontogram Modul - https://github.com/ZoliQua/React-Odontogram-Modul - SVG Version: 2.1.1 -->
<svg xmlns="http://www.w3.org/2000/svg" id="molar_x5F_tooth" version="1.1" viewBox="0 0 42 42">
  <style>
    [data-active="0"] { display: none; }
  </style>
  <defs>
    <linearGradient id="linear-gradient-16-occl-0" x1="5.6" y1="2093.4" x2="37.5" y2="2093.4" gradientTransform="translate(0 -2072)" gradientUnits="userSpaceOnUse" data-active="1">
      <stop offset="0" stop-color="#f0eff0" data-active="1" />
      <stop offset="1" stop-color="#e2d4c8" data-active="1" />
      </linearGradient>
    <linearGradient id="linear-gradient-16-occl-1" x1="3.4" y1="2093.4" x2="37.5" y2="2093.4" gradientTransform="translate(0 -2072)" gradientUnits="userSpaceOnUse" data-active="1">
      <stop offset="0" stop-color="#f0eff0" data-active="1" />
      <stop offset="1" stop-color="#e2d4c8" data-active="1" />
      </linearGradient>
    <linearGradient id="linear-gradient-16-occl-2" x1="5.5" y1="2093.4" x2="38.4" y2="2093.4" gradientTransform="translate(0 -2072)" gradientUnits="userSpaceOnUse" data-active="1">
      <stop offset="0" stop-color="#f0eff0" data-active="1" />
      <stop offset="1" stop-color="#e2d4c8" data-active="1" />
      </linearGradient>
    <linearGradient id="linear-gradient-16-occl-3" x1="3.4" y1="2093.4" x2="38.4" y2="2093.4" gradientTransform="translate(0 -2072)" gradientUnits="userSpaceOnUse" data-active="1">
      <stop offset="0" stop-color="#f0eff0" data-active="1" />
      <stop offset="1" stop-color="#e2d4c8" data-active="1" />
      </linearGradient>
    <linearGradient id="linear-gradient-16-occl-4" x1="3.4" y1="2093.4" x2="38.4" y2="2093.4" gradientTransform="translate(0 -2072)" gradientUnits="userSpaceOnUse" data-active="1">
      <stop offset="0" stop-color="#f0eff0" data-active="1" />
      <stop offset="1" stop-color="#e2d4c8" data-active="1" />
      </linearGradient>
    <linearGradient id="linear-gradient-16-occl-5" x1="34.9" y1="2097.5" x2="28" y2="2085.4" gradientTransform="translate(0 -2072)" gradientUnits="userSpaceOnUse" data-active="1">
      <stop offset="0" stop-color="#f0eff0" data-active="1" />
      <stop offset="1" stop-color="#e2d4c8" data-active="1" />
      </linearGradient>
    <linearGradient id="linear-gradient-16-occl-6" x1="8.3" y1="2079.9" x2="18.8" y2="2090.3" gradientTransform="translate(0 -2072)" gradientUnits="userSpaceOnUse" data-active="1">
      <stop offset="0" stop-color="#f0eff0" data-active="1" />
      <stop offset="1" stop-color="#e2d4c8" data-active="1" />
      </linearGradient>
    <linearGradient id="linear-gradient-16-occl-7" x1="26.2" y1="2075.9" x2="26.2" y2="2091.6" gradientTransform="translate(0 -2072)" gradientUnits="userSpaceOnUse" data-active="1">
      <stop offset="0" stop-color="#f0f0f0" data-active="1" />
      <stop offset="1" stop-color="#e2d4c8" data-active="1" />
      </linearGradient>
    <linearGradient id="linear-gradient-16-occl-8" x1="28.3" y1="2109.8" x2="17.3" y2="2090.6" gradientTransform="translate(0 -2072)" gradientUnits="userSpaceOnUse" data-active="1">
      <stop offset="0" stop-color="#f0eff0" data-active="1" />
      <stop offset="1" stop-color="#e2d4c8" data-active="1" />
      </linearGradient>
    <linearGradient id="linear-gradient-16-occl-9" x1="29.8" y1="2104.1" x2="29.8" y2="2090.9" gradientTransform="translate(0 -2072)" gradientUnits="userSpaceOnUse" data-active="1">
      <stop offset="0" stop-color="#f0eff0" data-active="1" />
      <stop offset="1" stop-color="#e2d4c8" data-active="1" />
      </linearGradient>
    <linearGradient id="linear-gradient-16-occl-10" x1="4.3" y1="2102.9" x2="13.1" y2="2097.8" gradientTransform="translate(0 -2072)" gradientUnits="userSpaceOnUse" data-active="1">
      <stop offset="0" stop-color="#f0eff0" data-active="1" />
      <stop offset="1" stop-color="#e2d4c8" data-active="1" />
      </linearGradient>
    <linearGradient id="linear-gradient-16-occl-11" x1="21.1" y1="-3030.6" x2="21.1" y2="-3051.8" gradientTransform="translate(0 -3020) scale(1 -1)" gradientUnits="userSpaceOnUse" data-active="1">
      <stop offset="0" stop-color="#c8c9c9" data-active="1" />
      <stop offset="1" stop-color="#828282" data-active="1" />
      </linearGradient>
    <linearGradient id="linear-gradient-16-occl-12" x1="12.9" y1="2092.9" x2="29.3" y2="2092.9" gradientTransform="translate(0 -2072)" gradientUnits="userSpaceOnUse" data-active="1">
      <stop offset=".3" stop-color="#cf0" stop-opacity=".5" data-active="1" />
      <stop offset="1" stop-color="#b4c500" data-active="1" />
      </linearGradient>
    <radialGradient id="radial-gradient-16-occl-0" cx="21" cy="22.6" fx="21" fy="22.6" r="17.8" gradientTransform="translate(0 44) scale(1 -1)" gradientUnits="userSpaceOnUse" data-active="1">
      <stop offset="0" stop-color="#fff" data-active="1" />
      <stop offset="0" stop-color="#fdf3ea" data-active="1" />
      <stop offset=".2" stop-color="#f9d8b9" data-active="1" />
      <stop offset=".3" stop-color="#f5c18f" data-active="1" />
      <stop offset=".4" stop-color="#f2ae6c" data-active="1" />
      <stop offset=".6" stop-color="#f09f52" data-active="1" />
      <stop offset=".7" stop-color="#ef953f" data-active="1" />
      <stop offset=".9" stop-color="#ee8f33" data-active="1" />
      <stop offset="1" stop-color="#ee8d30" data-active="1" />
      </radialGradient>
    </defs>
  <g id="base" data-active="1">
    <path id="bone-base" d="M42,40s-2.8.7-5.5.5-4.5,0-5.2,0c-2-.2-5.2-.3-8.2-.2-3.4,0-7.2.9-9.7.9s-2.9,0-4.3-.2c-3.5-.3-5.1-.7-5.1-.7-1.6-.3-3.9.7-3.9-.6V3.2l4.8-.5,13.8-1.1h16.7l6.7.4v40h0v-2h-.1Z" style="fill: #fdecc5;" data-active="1" />
    <g id="gum-base" data-active="1">
      <path id="gum-line-2" d="M8,2.9c7.3-.2,28.5-1.1,30.8-.6,2.3.5,1.9.4,2.9,0s1.1-1.2,0-1.5-3.3-.3-5.9-.2c-4.9.2-10.2.6-12.3.8-5.6.5-6.2.5-12.1.5S4.3,1.4-.2,1.8c-4.6.4-.8,1.4.2,1.4,4.5,0,4.9,0,8-.3Z" style="fill: #f79f9a;" data-active="1" />
      <path id="gum-line-1" d="M33.8,39.7c-7.3,0-28.5.6-30.8,0s-1.9-.4-2.9,0-1.1,1.2,0,1.5c1.2.3,3.3.4,5.9.3,4.9,0,10.2-.4,12.4-.6,5.6-.4,6.2-.4,12.1-.3,4.3,0,7.1.6,11.6.3s.8-1.4-.3-1.5c-4.5-.2-4.9,0-8,0h0v.3Z" style="fill: #f79f9a;" data-active="1" />
      </g>
    </g>
  <g id="tooth-variants" data-active="1">
    <path id="tooth-broken-mesial-distal" d="M17.4,3.4c2.1,0,4.5.3,6.7.5,1.5,0,3.1.2,4.5.7.9.3,1.7.6,2.6,1,1.4.6,2.8,1.4,3.9,2.6,1.1,1.1,2,2.4,2.4,3.9.2.6-4.4-.4-4.3.3,0,.8,2,3.4,2,4.2s-2.3,1.8-2.3,2.6c0,1.2,2.2,1.9,2.1,3.1,0,.6-3,2.8-3,3.4,0,1,3.2,1.8,3,2.7-.2.9-3.3,1.3-3.6,2.2s4.8,1.4,4.3,2.4c-1.4,2.4-4.1,3.8-6.7,4.4-1,.2-2.1.4-3.1.6-1.5.3-3,.8-4.5,1.2-1.3.3-2.6.2-3.8,0-1.1,0-2.2-.3-3.3-.3-1.9-.2-3.9-.3-5.5-1.4-1.3-.9-2.3-2.2-3.1-3.6-.2-.4,3.8-2.2,3.9-4.5s-3.2-1.7-3.1-2.8,0-2.4.7-3.9,1.4-1.9,1.4-2.7c.2-2.4-2.9-1.5-2.6-3.5s1.1-2.1,1.5-3.8.4-5,.6-5.2c1.4-1.6,3.3-3,5.3-3.6,1.3-.3,2.7-.5,4-.5h0Z" style="display: none; fill: url(#linear-gradient-16-occl-0); stroke: #c8c8c8; stroke-miterlimit: 10;" data-active="1" />
    <path id="tooth-broken-mesial" d="M17.4,3.4c2.1,0,4.5.3,6.7.5,1.5,0,3.1.2,4.5.7.9.3,1.7.6,2.6,1,1.4.6,2.8,1.4,3.9,2.6,1.1,1.1,2,2.4,2.4,3.9.2.6-4.4-.4-4.3.3,0,.8,2,3.4,2,4.2s-2.3,1.8-2.3,2.6c0,1.2,2.2,1.9,2.1,3.1,0,.6-3,2.8-3,3.4,0,1,3.2,1.8,3,2.7-.2.9-3.3,1.3-3.6,2.2s4.8,1.4,4.3,2.4c-1.4,2.4-4.1,3.8-6.7,4.4-1,.2-2.1.4-3.1.6-1.5.3-3,.8-4.5,1.2-1.3.3-2.6.2-3.8,0-1.1,0-2.2-.3-3.3-.3-1.9-.2-3.9-.3-5.5-1.4-1.3-.9-2.3-2.2-3.1-3.6-1-1.5-1.7-3.2-2-5-.3-1.3-.2-2.7-.2-4s.5-3.5.7-5.3c.4-2.1.5-4.3,1-6.4.5-2.1,1.5-4,2.8-5.6,1.4-1.6,3.3-3,5.3-3.6,1.3-.3,2.7-.5,4-.5h.1Z" style="display: none; fill: url(#linear-gradient-16-occl-1); stroke: #c8c8c8; stroke-miterlimit: 10;" data-active="1" />
    <path id="tooth-broken-distal" d="M17.4,3.4c2.1,0,4.5.3,6.7.5,1.5,0,3.1.2,4.5.7.9.3,1.7.6,2.6,1,1.4.6,2.8,1.4,3.9,2.6,1.1,1.1,2,2.4,2.4,3.9.2.6.3,1.3.5,2,.3,1.7.5,3.2.5,4.8s0,2.4-.2,3.6c0,1.6-.2,3.1-.5,4.6-.5,2-1,4.2-2,6-1.4,2.4-4.1,3.8-6.7,4.4-1,.2-2.1.4-3.1.6-1.5.3-3,.8-4.5,1.2-1.3.3-2.6.2-3.8,0-1.1,0-2.2-.3-3.3-.3-1.9-.2-3.9-.3-5.5-1.4-1.3-.9-2.3-2.2-3.1-3.6-1-1.5,4.2-2.7,3.9-4.5-.3-1.3-3.2-1.4-3.1-2.8,0-.9.7-3,.7-3.9s1.3-1.8,1.4-2.7c.2-1.4-2.6-2.3-2.6-3.5s1.3-3,1.5-3.8c.5-2.1-.8-3.6.6-5.2,1.4-1.6,3.3-3,5.3-3.6,1.3-.3,2.7-.5,4-.5h-.1Z" style="display: none; fill: url(#linear-gradient-16-occl-2); stroke: #c8c8c8; stroke-miterlimit: 10;" data-active="1" />
    <g id="tooth-crownprep" style="display: none;" data-active="1">
      <path id="tooth-crownprep-outer" d="M17.4,3.4c2.1,0,4.5.3,6.7.5,1.5,0,3.1.2,4.5.7.9.3,1.7.6,2.6,1,1.4.6,2.8,1.4,3.9,2.6,1.1,1.1,2,2.4,2.4,3.9.2.6.3,1.3.5,2,.3,1.7.5,3.2.5,4.8s0,2.4-.2,3.6c0,1.6-.2,3.1-.5,4.6-.5,2-1,4.2-2,6-1.4,2.4-4.1,3.8-6.7,4.4-1,.2-2.1.4-3.1.6-1.5.3-3,.8-4.5,1.2-1.3.3-2.6.2-3.8,0-1.1,0-2.2-.3-3.3-.3-1.9-.2-3.9-.3-5.5-1.4-1.3-.9-2.3-2.2-3.1-3.6-1-1.5-1.7-3.2-2-5-.3-1.3-.2-2.7-.2-4s.5-3.5.7-5.3c.4-2.1.5-4.3,1-6.4.5-2.1,1.5-4,2.8-5.6,1.4-1.6,3.3-3,5.3-3.6,1.3-.3,2.7-.5,4-.5h0s0-.2,0-.2Z" style="fill: url(#linear-gradient-16-occl-3); stroke: #c8c8c8; stroke-miterlimit: 10;" data-active="1" />
      <path id="tooth-crownprep-inner" d="M18.6,7.7c1.5,0,3.3.2,4.9.4,1.1.1,2.3.2,3.3.5.6.2,1.3.5,1.9.7,1.1.4,2.1,1,2.9,1.9.8.8,1.4,1.7,1.8,2.8.2.5.3,1,.3,1.5.2,1.2.4,2.3.3,3.5v2.6c0,1.1,0,2.3-.4,3.4-.4,1.5-.8,3.1-1.5,4.4-1,1.8-3,2.8-4.9,3.3-.7.2-1.5.3-2.3.4-1.1.2-2.2.6-3.3.9-.9.2-1.9,0-2.8,0s-1.6-.2-2.4-.3c-1.4,0-2.9-.2-4-1.1-1-.7-1.7-1.6-2.3-2.7-.7-1.1-1.2-2.3-1.5-3.6-.2-1-.2-2-.1-3,0-1.3.3-2.6.5-3.9.3-1.6.4-3.2.8-4.7.4-1.5,1.1-3,2.1-4.1,1.1-1.2,2.4-2.2,3.9-2.7.9-.3,2-.4,2.9-.3h0Z" style="fill: #eaeaea; stroke: #c8c8c8; stroke-miterlimit: 10;" data-active="1" />
      </g>
    </g>
  <g id="tooth" data-active="1">
    <g id="tooth-base" data-active="1">
      <path id="background-cusp" d="M17.4,3.4c2.1,0,4.5.3,6.7.5,1.5,0,3.1.2,4.5.7.9.3,1.7.6,2.6,1,1.4.6,2.8,1.4,3.9,2.6,1.1,1.1,2,2.4,2.4,3.9.2.6.3,1.3.5,2,.3,1.7.5,3.2.5,4.8s0,2.4-.2,3.6c0,1.6-.2,3.1-.5,4.6-.5,2-1,4.2-2,6-1.4,2.4-4.1,3.8-6.7,4.4-1,.2-2.1.4-3.1.6-1.5.3-3,.8-4.5,1.2-1.3.3-2.6.2-3.8,0-1.1,0-2.2-.3-3.3-.3-1.9-.2-3.9-.3-5.5-1.4-1.3-.9-2.3-2.2-3.1-3.6-1-1.5-1.7-3.2-2-5-.3-1.3-.2-2.7-.2-4s.5-3.5.7-5.3c.4-2.1.5-4.3,1-6.4.5-2.1,1.5-4,2.8-5.6,1.4-1.6,3.3-3,5.3-3.6,1.3-.3,2.7-.5,4-.5h0s0-.2,0-.2Z" style="fill: url(#linear-gradient-16-occl-4); stroke: #c8c8c8; stroke-miterlimit: 10;" data-active="1" />
      <g id="cusps" data-active="1">
        <path d="M22.6,21.3c.5.2,1.3.4,2,.6.8.3,1.6.5,2.5.7,1.4.4,3.1.7,4.6.9,1.3.2,2.3.4,3.5.6,1.1.2,2.3.3,2.7-1.2.2-.8,0-1.7,0-2.6s0-2.3-.2-3.5c-.2-1.9-.5-3.9-1-5.7-.2-.7-.5-1.5-1-2-.7-.6-1.1.3-1.5,1-.2.4-.4.8-.6,1.1-.7,1.1-1.6,2-2.6,2.8-1.4,1.1-3.1,2.2-4.8,3.3-1,.6-2,1.3-3,2-.5.3-.9.6-1.1.9-.4.4-.2.7.4.9h0v.2h.1Z" style="fill: url(#linear-gradient-16-occl-5);" data-active="1" />
        <path d="M11.2,24.7c.1.1.6.4,1,0,1.5-1.5,3.2-3.2,4.5-4.4.5-.4,1-1,1.5-1.5s.4-.4.5-.6c.2-.3.2-.6.2-1v-1.8c0-2.3.3-4.5.5-6.8,0-.5,0-.9-.2-1.5-.2-.7-.4-1.7-.6-2.4-.2-.7-.3-1-1-1h-3.4c-.6.2-1.1.3-1.7.5-.4.2-.7.3-1.1.7-.7.5-1.6,1.3-2.3,1.8-.5.4-.8.8-1.2,1.4-.3.4-.6.9-.9,1.3-.4.5-.5,1-.7,1.5-.3.9-.5,1.4-.7,2.3-.2.7.3,1,.2,1.8,0,.7,4.4,8.6,5.2,9.4l.2.2h0Z" style="fill: url(#linear-gradient-16-occl-6);" data-active="1" />
        <path d="M27.2,16.8c1.3-.8,1.9-1.3,3.2-2.2.9-.6,1.6-1.2,2.3-2.1.7-.8,1.1-1.6,1.4-2.5.3-1.2.5-2-.5-2.6-.6-.4-1.1-.7-1.8-1.1-1.1-.6-2.2-1-3.4-1.3-1.8-.5-3.6-1-5.5-1.1h-1.9c-.7,0-1.7.8-2.1.4-1.3-1.4-.6,2.4-.5,3.4,0,.7.1,1.5.1,2.2,0,1.8-.3,3.5-.4,5.3,0,.7,0,1.5.2,2.2.5,1.5,1.9,2.5,3.4,2.2,1.3-.2,2.4-.6,3.5-1.3.6-.4,1.3-1.1,1.9-1.5h0Z" style="fill: url(#linear-gradient-16-occl-7);" data-active="1" />
        <path d="M24,20c.2.1.3.3.5.5,1.4,1.6,4.6,5.3,6,6.7s0,0,0,0c1.4,1.1,4.1,3.3,5.2,4.2,0,.1,0,.8-.3,1.1s-.5.5-.9.8c-.7.6-1.4,1.2-2,1.8s-.8.8-1.3.8c-1.1.2-2.2.4-3.2.6-.9.2-1.6.2-2.3.5-.8.3-1.6.6-2.4.9-.6.2-.7-.2-1.3,0-.8,0-1.6.7-2.4.7h-1.7c-.3,0-.5-.4-.7-.7-.3-.5-.7-1.2-1-1.8-.3-.6-.7-1.2-1-1.7-.3-.6-.5-.9-.7-1.5-.4-1-.7-2.1-1.1-3.1-.5-1.1-1.2-2.4-1.8-3.7-.2-.4-.3-.7-.4-.9v-.4c0-.1,0,0,.1-.1,1.9-1.8,4.7-4.4,6.8-6.2.5-.5.9-.7,1.6-.4,1.2.6,3.1,1.4,4.4,2.1h-.1s0-.2,0-.2Z" style="fill: url(#linear-gradient-16-occl-8);" data-active="1" />
        <path d="M22,19.1c-.2-.2.1-.1.3,0,2.3.5,12.3,2.6,14.8,3.2.2,0,.4,0,.5.2v.7c0,1.6-.2,3.3-.7,4.9-.3,1-.5,2-.8,3-.4,1.4-.6,1.2-1.4.5-1.3-1.1-3.3-2.7-4.6-3.9-.6-.5-.8-.9-1.4-1.5-1.2-1.5-2.6-3-3.8-4.5-.5-.6-.7-.9-1.2-1.2-.5-.4-1.2-.8-1.7-1.3h0Z" style="fill: url(#linear-gradient-16-occl-9);" data-active="1" />
        <path d="M4.4,20.3c-.6,1.9-.2,3.2-.3,5.2,0,1.5,0,2.9.4,4.4.2,1,.5,2.1,1.1,3,.2.3,1.1,1.4,1.3,1.7.8,1,1.2,1.8,2.3,2.6.9.6,1.8.7,2.9,1.1.9.3,1.8.3,2.7.5.7,0,1.5.2,2.2.3.5,0,1.4.3,1.6-.3s-1-2.4-1.4-3c-.7-1.1-1.4-2.1-2-3.2-.9-1.4-1.5-2.9-2.2-4.4s-1.6-3.1-2.4-4.6c-.4-.9-1-1.8-1.5-2.5-.4-.6-.8-1.1-1.1-1.9-.6-1.5-.9-3.7-1.6-5-.4-.7-.9-.6-1,.2-.2,1.5-.5,3.4-.9,4.8l-.2,1.1h0Z" style="fill: url(#linear-gradient-16-occl-10);" data-active="1" />
        </g>
      <g id="fissure" data-active="1">
        <path d="M18.1,37.8c.3.7-1.1-2.1-1.7-3.1s-1.7-1.9-2.2-3c-.7-1.6-1.8-3-1.8-4.8,0-2.7-2.7-4.7-4.2-6.8-1-1.3-2.3-7.1-1.9-6" style="fill: none; stroke: #9f9f9f; stroke-miterlimit: 10;" data-active="1" />
        <path d="M22.1,19.2c.4-.1,1.2,1,1.5,1.3,1,1.1,3.9,3.6,4.4,5.1.5,1.3,5,4.3,4.6,4.1" style="fill: none; stroke: #9f9f9f; stroke-miterlimit: 10;" data-active="1" />
        <path d="M11.1,24.1c1-1.2,1.8-1.3,3-2.4,1.1-.9,2.2-1.6,3.3-2.5.6-.6,1.2-1.5,1.4-2.4s-.7-1-.5-2.2c0-.5,0-2.1.2-2.5.8-1.7,0-1.5.2-2.2,0-.3-.4-5.7-.4-5.2" style="fill: none; stroke: #9f9f9f; stroke-miterlimit: 10;" data-active="1" />
        <path d="M34,21.7c1.2.3-3.8-.9-5.3-1.1-.5,0-2.1-.1-2.5-.4-.4-.2-1.7-.2-2-.5s-1.7-.6-2.1-.5" style="fill: none; stroke: #9f9f9f; stroke-miterlimit: 10;" data-active="1" />
        <path d="M32.6,12.5c1-1-2.7,2.2-5.5,4.3-.7.6-3.4,1.5-4.2,2s-.6.4-1.1.4-.9,0-1.3-.2c-.8-.2-1.5-.6-2-1.3" style="fill: none; stroke: #9f9f9f; stroke-miterlimit: 10;" data-active="1" />
        </g>
      </g>
    </g>
  <g id="surfaces" data-active="1">
    <g id="fillings" data-active="1">
      <g id="amalgam" data-active="1">
        <path id="filling-amalgam-occlusal" d="M11.4,27.7c.6.9,3.7,6.3,4.6,6.4.9,0-1.6-4.6-1.5-5.7s.2-3.1.7-3.7c1-1.2,3.2-3.2,3.9-3.3,1.7-.4,6.6,3.4,8.5,3.8,3.1.6-2.3-4.4,2.1-4.2,4.4.2-.3-3.5-.8-5-.9-2-4.9,1.8-7,.6s-1.2-6.5-2.9-6.5-.8,6.4-2.6,7.7-4.6,3.4-6.1,2.4-1.2-1.6-2.3-2.7-1.3,0-1,.7l1.5,3.8,1.2,3,1.6,2.6h0Z" style="display: none; fill: #a0a0a0; stroke: #c8c8c8; stroke-miterlimit: 10;" data-active="1" />
        <path id="filling-amalgam-lingual" d="M15.4,38.5c1.1.5,3,.7,4.6.7,2.5,0,4.6-.5,5.7-1.4s.8-.6.8-1c-.9-1.9-12-1.3-13.5-.6-.8.6,1.4,1.7,2.4,2.2h0Z" style="display: none; fill: #a0a0a0; stroke: #c8c8c8; stroke-miterlimit: 10;" data-active="1" />
        <path id="filling-amalgam-buccal" d="M16.2,6.3c1.1.5,3,.7,4.6.7,2.5,0,4.6-.5,5.7-1.5s.8-.6.8-1c-1-1.9-12-1.2-13.5-.5-.8.6,1.4,1.7,2.4,2.2h0Z" style="display: none; fill: #a0a0a0; stroke: #c8c8c8; stroke-miterlimit: 10;" data-active="1" />
        <path id="filling-amalgam-mesial" d="M35.7,29.1c3.4.2,3.4-14.6,2-16.2-.5-1.1-1.9-.3-2.8-.6-1.5-.5-1.9,3.4-2.8,5-.4,1.6-4.6,1.3-3.6,4.1s3.3,1,3.8,1.9c.5.9,1.2,4.1,2.2,5.2l1.1.7h0Z" style="display: none; fill: #a0a0a0; stroke: #c8c8c8; stroke-miterlimit: 10;" data-active="1" />
        <path id="filling-amalgam-distal" d="M9,26.4c2.4-.3-.4-3.3.1-5.4.7-3.1,2.7-7.5-.8-7.2-.8.1-2.3-.3-2.8.5-2.3,3-3,10.6-.3,12.1s.6.6.7,1h0c0,.6.6,1,1.2.8s.6-.2.8-.4l1.2-1.4h0Z" style="display: none; fill: #a0a0a0; stroke: #c8c8c8; stroke-miterlimit: 10;" data-active="1" />
        </g>
      <g id="composite" data-active="1">
        <path id="filling-composite-occlusal" d="M11.4,27.7c.6.9,3.7,6.3,4.6,6.4.9,0-1.6-4.6-1.5-5.7s.2-3.1.7-3.7c1-1.2,3.2-3.2,3.9-3.3,1.7-.4,6.6,3.4,8.5,3.8,3.1.6-2.3-4.4,2.1-4.2,4.4.2-.3-3.5-.8-5-.9-2-4.9,1.8-7,.6s-1.2-6.5-2.9-6.5-.8,6.4-2.6,7.7-4.6,3.4-6.1,2.4-1.2-1.6-2.3-2.7-1.3,0-1,.7l1.5,3.8,1.2,3,1.6,2.6h0Z" style="display: none; fill: #feffbf; stroke: #feffd5; stroke-miterlimit: 10;" data-active="1" />
        <path id="filling-composite-lingual" d="M15.4,38.5c1.1.5,3,.7,4.6.7,2.5,0,4.6-.5,5.7-1.4s.8-.6.8-1c-.9-1.9-12-1.3-13.5-.6-.8.6,1.4,1.7,2.4,2.2h0Z" style="display: none; fill: #feffbf; stroke: #feffd5; stroke-miterlimit: 10;" data-active="1" />
        <path id="filling-composite-buccal" d="M16.2,6.3c1.1.5,3,.7,4.6.7,2.5,0,4.6-.5,5.7-1.5s.8-.6.8-1c-1-1.9-12-1.2-13.5-.5-.8.6,1.4,1.7,2.4,2.2h0Z" style="display: none; fill: #feffbf; stroke: #feffd5; stroke-miterlimit: 10;" data-active="1" />
        <path id="filling-composite-mesial" d="M35.7,29.1c3.4.2,3.4-14.6,2-16.2-.5-1.1-1.9-.3-2.8-.6-1.5-.5-1.9,3.4-2.8,5-.4,1.6-4.6,1.3-3.6,4.1s3.3,1,3.8,1.9c.5.9,1.2,4.1,2.2,5.2l1.1.7h0Z" style="display: none; fill: #feffbf; stroke: #feffd5; stroke-miterlimit: 10;" data-active="1" />
        <path id="filling-composite-distal" d="M9,26.4c2.4-.3-.4-3.3.1-5.4.7-3.1,2.7-7.5-.8-7.2-.8.1-2.3-.3-2.8.5-2.3,3-3,10.6-.3,12.1s.6.6.7,1h0c0,.6.6,1,1.2.8s.6-.2.8-.4l1.2-1.4h0Z" style="display: none; fill: #feffbf; stroke: #feffd5; stroke-miterlimit: 10;" data-active="1" />
        </g>
      <g id="gic" data-active="1">
        <path id="filling-gic-occlusal" d="M11.4,27.7c.6.9,3.7,6.3,4.6,6.4.9,0-1.6-4.6-1.5-5.7s.2-3.1.7-3.7c1-1.2,3.2-3.2,3.9-3.3,1.7-.4,6.6,3.4,8.5,3.8,3.1.6-2.3-4.4,2.1-4.2,4.4.2-.3-3.5-.8-5-.9-2-4.9,1.8-7,.6s-1.2-6.5-2.9-6.5-.8,6.4-2.6,7.7-4.6,3.4-6.1,2.4-1.2-1.6-2.3-2.7-1.3,0-1,.7l1.5,3.8,1.2,3,1.6,2.6h0Z" style="display: none; fill: #f9ae94; stroke: #f99; stroke-miterlimit: 10;" data-active="1" />
        <path id="filling-gic-lingual" d="M15.4,38.5c1.1.5,3,.7,4.6.7,2.5,0,4.6-.5,5.7-1.4s.8-.6.8-1c-.9-1.9-12-1.3-13.5-.6-.8.6,1.4,1.7,2.4,2.2h0Z" style="display: none; fill: #f9ae94; stroke: #f99; stroke-miterlimit: 10;" data-active="1" />
        <path id="filling-gic-buccal" d="M16.2,6.3c1.1.5,3,.7,4.6.7,2.5,0,4.6-.5,5.7-1.5s.8-.6.8-1c-1-1.9-12-1.2-13.5-.5-.8.6,1.4,1.7,2.4,2.2h0Z" style="display: none; fill: #f9ae94; stroke: #f99; stroke-miterlimit: 10;" data-active="1" />
        <path id="filling-gic-mesial" d="M35.7,29.1c3.4.2,3.4-14.6,2-16.2-.5-1.1-1.9-.3-2.8-.6-1.5-.5-1.9,3.4-2.8,5-.4,1.6-4.6,1.3-3.6,4.1s3.3,1,3.8,1.9c.5.9,1.2,4.1,2.2,5.2l1.1.7h0Z" style="display: none; fill: #f9ae94; stroke: #f99; stroke-miterlimit: 10;" data-active="1" />
        <path id="filling-gic-distal" d="M9,26.4c2.4-.3-.4-3.3.1-5.4.7-3.1,2.7-7.5-.8-7.2-.8.1-2.3-.3-2.8.5-2.3,3-3,10.6-.3,12.1s.6.6.7,1h0c0,.6.6,1,1.2.8s.6-.2.8-.4l1.2-1.4h0Z" style="display: none; fill: #f9ae94; stroke: #f99; stroke-miterlimit: 10;" data-active="1" />
        </g>
      <g id="temporary" data-active="1">
        <path id="filling-temporary-occlusal" d="M11.4,27.7c.6.9,3.7,6.3,4.6,6.4.9,0-1.6-4.6-1.5-5.7s.2-3.1.7-3.7c1-1.2,3.2-3.2,3.9-3.3,1.7-.4,6.6,3.4,8.5,3.8,3.1.6-2.3-4.4,2.1-4.2,4.4.2-.3-3.5-.8-5-.9-2-4.9,1.8-7,.6s-1.2-6.5-2.9-6.5-.8,6.4-2.6,7.7-4.6,3.4-6.1,2.4-1.2-1.6-2.3-2.7-1.3,0-1,.7l1.5,3.8,1.2,3,1.6,2.6h0Z" style="display: none; fill: #fff; stroke: #eee; stroke-miterlimit: 10;" data-active="1" />
        <path id="filling-temporary-lingual" d="M15.4,38.5c1.1.5,3,.7,4.6.7,2.5,0,4.6-.5,5.7-1.4s.8-.6.8-1c-.9-1.9-12-1.3-13.5-.6-.8.6,1.4,1.7,2.4,2.2h0Z" style="display: none; fill: #fff; stroke: #eee; stroke-miterlimit: 10;" data-active="1" />
        <path id="filling-temporary-buccal" d="M16.2,6.3c1.1.5,3,.7,4.6.7,2.5,0,4.6-.5,5.7-1.5s.8-.6.8-1c-1-1.9-12-1.2-13.5-.5-.8.6,1.4,1.7,2.4,2.2h0Z" style="display: none; fill: #fff; stroke: #eee; stroke-miterlimit: 10;" data-active="1" />
        <path id="filling-temporary-mesial" d="M35.7,29.1c3.4.2,3.4-14.6,2-16.2-.5-1.1-1.9-.3-2.8-.6-1.5-.5-1.9,3.4-2.8,5-.4,1.6-4.6,1.3-3.6,4.1s3.3,1,3.8,1.9c.5.9,1.2,4.1,2.2,5.2l1.1.7h0Z" style="display: none; fill: #fff; stroke: #eee; stroke-miterlimit: 10;" data-active="1" />
        <path id="filling-temporary-distal" d="M9,26.4c2.4-.3-.4-3.3.1-5.4.7-3.1,2.7-7.5-.8-7.2-.8.1-2.3-.3-2.8.5-2.3,3-3,10.6-.3,12.1s.6.6.7,1h0c0,.6.6,1,1.2.8s.6-.2.8-.4l1.2-1.4h0Z" style="display: none; fill: #fff; stroke: #eee; stroke-miterlimit: 10;" data-active="1" />
        </g>
      </g>
    <g id="caries" data-active="1">
      <path id="caries-lingual" d="M15.4,38.5c1.1.5,3,.7,4.6.7,2.5,0,4.6-.5,5.7-1.4s.8-.6.8-1c-.9-1.9-12-1.3-13.5-.6-.8.6,1.4,1.7,2.4,2.2h0Z" style="display: none; fill: #0a1018; stroke: #000; stroke-miterlimit: 10;" data-active="1" />
      <path id="caries-buccal" d="M16.2,6.3c1.1.5,3,.7,4.6.7,2.5,0,4.6-.5,5.7-1.5s.8-.6.8-1c-1-1.9-12-1.2-13.5-.5-.8.6,1.4,1.7,2.4,2.2h0Z" style="display: none; fill: #0a1018; stroke: #000; stroke-miterlimit: 10;" data-active="1" />
      <g id="caries-mesial" style="display: none;" data-active="1">
        <path id="mesial-shape" d="M35.7,29.1c3.4.2,3.4-14.6,2-16.2-.5-1.1-1.9-.3-2.8-.6-1.5-.5-1.9,3.4-2.8,5-.4,1.6-4.6,1.3-3.6,4.1s3.3,1,3.8,1.9c.5.9,1.2,4.1,2.2,5.2l1.1.7h0Z" style="fill: #0a1018; stroke: #000; stroke-miterlimit: 10;" data-active="1" />
        <path id="mesial-patch2" d="M35,22c-4,0,1.2,4.3,2.2,1.6.4-.9-1-1.7-1.9-1.6h-.4.1Z" style="fill: #fff;" data-active="1" />
        <path id="mesial-patch1" d="M37.2,15.1c-1.7-1.3-5.7.7-2.6,1.6,2,.5,3.1-.6,2.6-1.5h0Z" style="fill: #fff;" data-active="1" />
        </g>
      <g id="caries-distal" style="display: none;" data-active="1">
        <path id="distal-shape" d="M9,26.4c2.4-.3-.4-3.3.1-5.4.7-3.1,2.7-7.5-.8-7.2-.8.1-2.3-.3-2.8.5-2.3,3-3,10.6-.3,12.1s.6.6.7,1h0c0,.6.6,1,1.2.8s.6-.2.8-.4l1.2-1.4h0Z" style="fill: #0a1018; stroke: #000; stroke-miterlimit: 10;" data-active="1" />
        <path id="distal-patch2" d="M8.3,18.8c1.2-.7.8-3.2-.7-3.1s-1.2,3.6.3,3.1h.4Z" style="fill: #fff;" data-active="1" />
        <path id="distal-patch1" d="M6.2,25.3c0,.3.6.5,1,.6.2,0,.7.2.7,0-.2-.5-1-1.5-1.4-1.8-.7-.3-.5.9-.4,1.2,0,0,0,0,.1,0Z" style="fill: #fff;" data-active="1" />
        </g>
      <g id="caries-occlusal" style="display: none;" data-active="1">
        <path id="occlusal-shape" d="M11.4,27.7c.6.9,3.7,6.3,4.6,6.4.9,0-1.6-4.6-1.5-5.7s.2-3.1.7-3.7c1-1.2,3.2-3.2,3.9-3.3,1.7-.4,6.6,3.4,8.5,3.8,3.1.6-2.3-4.4,2.1-4.2,4.4.2-.3-3.5-.8-5-.9-2-4.9,1.8-7,.6s-1.2-6.5-2.9-6.5-.8,6.4-2.6,7.7-4.6,3.4-6.1,2.4-1.2-1.6-2.3-2.7-1.3,0-1,.7l1.5,3.8,1.2,3,1.6,2.6h0Z" style="fill: #0a1018; stroke: #000; stroke-miterlimit: 10;" data-active="1" />
        <path id="occlusal-patch2" d="M22.9,19.5c-.9,3,4.1,1.5,4.5,0,.6-.8.2-2-.6-2.3-1.5-.5-3,1-4,2.1h0v.2s.1,0,.1,0Z" style="fill: #fff; stroke: #000; stroke-miterlimit: 10; stroke-width: .2px;" data-active="1" />
        <path id="occlusal-patch1" d="M11.6,23.2c-.1,1.5,1.2,2.6,2,1.2.5-.9.5-3.1-.5-3.1s-1.4.7-1.4,1.8v.2h-.1Z" style="fill: #fff; stroke: #000; stroke-miterlimit: 10; stroke-width: .2px;" data-active="1" />
        </g>
      </g>
    <g id="contact-point" style="display: none;" data-active="1">
      <g id="mesial-no-contact-point" data-active="1">
        <path d="M36.9,16c.9,3,2.1,6.3,3.4,9.4" style="fill: none; stroke: #aaa; stroke-miterlimit: 10; stroke-width: .5px;" data-active="1" />
        <path d="M36.7,25.9c.8-1.8,1-3,1.6-4.5.7-1.7,1.3-3.4,1.9-5.3" style="fill: none; stroke: #aaa; stroke-miterlimit: 10; stroke-width: .5px;" data-active="1" />
        </g>
      <g id="distal-no-contact-point" data-active="1">
        <path d="M1.8,16.9c.9,3.1,2.2,6.4,3.4,9.7" style="fill: none; stroke: #aaa; stroke-miterlimit: 10; stroke-width: .5px;" data-active="1" />
        <path d="M1.6,26.7c.9-1.8,1-2.9,1.7-4.3.8-1.6,1.4-3.3,1.9-5.1" style="fill: none; stroke: #aaa; stroke-miterlimit: 10; stroke-width: .5px;" data-active="1" />
        </g>
      </g>
    <g id="fissure-sealing" style="display: none;" data-active="1">
      <g id="fissure-sealing-occlusal" data-active="1">
        <path d="M18.1,37.8c.3.7-1.1-2.1-1.7-3.1s-1.7-1.9-2.2-3c-.7-1.6-1.8-3-1.8-4.8,0-2.7-2.7-4.7-4.2-6.8-1-1.3-2.3-7.1-1.9-6" style="fill: none; stroke: #3fb6ff; stroke-miterlimit: 10; stroke-width: 2px;" data-active="1" />
        <path d="M22.1,19.2c.4-.1,1.2,1,1.5,1.3,1,1.1,3.9,3.6,4.4,5.1.5,1.3,5,4.3,4.6,4.1" style="fill: none; stroke: #3fb6ff; stroke-miterlimit: 10; stroke-width: 2px;" data-active="1" />
        <path d="M11.1,24.1c1-1.2,1.8-1.3,3-2.4,1.1-.9,2.2-1.6,3.3-2.5.6-.6,1.2-1.5,1.4-2.4s-.7-1-.5-2.2c0-.5,0-2.1.2-2.5.8-1.7,0-1.5.2-2.2,0-.3-.4-5.7-.4-5.2" style="fill: none; stroke: #3fb6ff; stroke-miterlimit: 10; stroke-width: 2px;" data-active="1" />
        <path d="M34,21.7c1.2.3-3.8-.9-5.3-1.1-.5,0-2.1-.1-2.5-.4-.4-.2-1.7-.2-2-.5s-1.7-.6-2.1-.5" style="fill: none; stroke: #3fb6ff; stroke-miterlimit: 10; stroke-width: 2px;" data-active="1" />
        <path d="M32.6,12.5c1-1-2.7,2.2-5.5,4.3-.7.6-3.4,1.5-4.2,2s-.6.4-1.1.4-.9,0-1.3-.2c-.8-.2-1.5-.6-2-1.3" style="fill: none; stroke: #3fb6ff; stroke-miterlimit: 10; stroke-width: 2px;" data-active="1" />
        </g>
      </g>
    </g>
  <g id="restorations" data-active="1">
    <g id="implant" style="display: none;" data-active="1">
      <g id="implant-base" data-active="1">
        <path d="M22.4,35.6h-2.8l-.7-2.2c-.8-.2-1.5-.3-2.3-.7l-1.8,1.6-2.4-1.4.6-2.3c-.6-.5-1.2-1.1-1.7-1.7l-2.3.6-1.4-2.4,1.6-1.8c-.3-.8-.5-1.5-.7-2.3l-2.2-.7v-2.8l2.2-.7c.2-.8.4-1.5.7-2.3l-1.6-1.8,1.4-2.4,2.3.6c.5-.6,1-1.1,1.7-1.7l-.6-2.4,2.4-1.4,1.7,1.6c.8-.3,1.5-.5,2.3-.6l.7-2.2h2.8l.6,2.2c.8.2,1.5.3,2.3.6l1.8-1.6,2.4,1.4-.6,2.3c.6.5,1.1,1,1.7,1.7l2.3-.6,1.4,2.4-1.6,1.7c.3.8.5,1.5.7,2.3l2.2.7v2.8l-2.2.7c-.2.8-.4,1.6-.7,2.3l1.6,1.8-1.4,2.4-2.3-.6c-.5.6-1,1.1-1.7,1.6l.6,2.4-2.4,1.4-1.8-1.6c-.8.3-1.5.5-2.3.6l-.6,2.2v.3h0Z" style="fill: #145d2a;" data-active="1" />
        <path d="M22.9,32.9h-.2l-.6,2.1h-2.1l-.6-2s0-.2-.2-.2c-.9,0-1.8-.4-2.6-.7l-1.7,1.6-1.8-1,.5-2.3c-.8-.6-1.4-1.3-2-2l-2.3.6-1-1.8,1.6-1.7c-.4-.9-.6-1.8-.8-2.8l-2.1-.7v-2.1l2-.6c.2,0,.2-.1.2-.3.1-.9.4-1.7.7-2.6l-1.6-1.7,1-1.8,2.3.6c.6-.7,1.3-1.4,2-2l-.6-2.3,1.8-1,1.6,1.5s.2.1.3,0c.9-.3,1.7-.5,2.7-.7l.7-2.2h2.1l.6,2c0,.1,0,.2.2.2.9.1,1.8.4,2.6.7l1.7-1.6,1.8,1.1-.6,2.3c.8.6,1.4,1.3,2,2l2.3-.6,1,1.8-1.6,1.7c.4.9.6,1.8.8,2.8l2.1.7v2.1l-2,.6s0,.1-.2.2c0,.9-.4,1.7-.7,2.5s0,.2,0,.2l1.5,1.6-1,1.8-2.3-.6c-.6.7-1.3,1.4-2,2l.6,2.3-1.8,1-1.7-1.6c-.9.3-1.7.6-2.6.7h0s0,.2,0,.2Z" style="fill: #c8c8c8;" data-active="1" />
        <circle cx="21.1" cy="20.9" r="9.4" style="fill: #eaeaea; stroke: #1b3f1c; stroke-miterlimit: 10; stroke-width: .5px;" data-active="1" />
        <circle cx="21.1" cy="20.9" r="5.8" style="fill: #fff; stroke: #1b3f1c; stroke-miterlimit: 10; stroke-width: .5px;" data-active="1" />
        </g>
      <path id="implant-bar" d="M-1.6,16.2c-3.4,7.4-1,15.6,2.9,15.1,8.2.8,27.3,0,36.3,0s6.5-2.3,7.5-8.5c.6-3.7,0-7.1-1.4-9.3-2.6-3.4-6.5-2.8-9.6-3.1-5.2,0-9.5,0-14.3.6-5.3.6-10.4,0-15.5.8-2.1,0-4.5,1.1-6,4h0v.6-.2h.1Z" style="display: none; fill: url(#linear-gradient-16-occl-11);" data-active="1" />
      <circle id="implant-healing-abutment" cx="21" cy="21" r="11.4" style="display: none; fill: #475563; stroke: #1b3f1c; stroke-miterlimit: 10; stroke-width: .5px;" data-active="1" />
      <circle id="implant-locator-screw" cx="21.1" cy="20.9" r="8.2" style="fill: url(#linear-gradient-16-occl-12); isolation: isolate; opacity: .8; stroke: #1b3f1c; stroke-miterlimit: 10; stroke-width: .5px;" data-active="1" />
      </g>
    <g id="prosthesis-implant" style="display: none;" data-active="1">
      <path id="prosthesis-implant-gum" d="M45.1,23.7c-2.6,8.1-12.8,3.2-18.7,3.7-7.8-.9-20.6,4.1-26.1-2.6-1.9-2.8-3.2-7.5-.7-10.3,4.8-4.3,18.2-3.9,25.3-3.7,8.1.6,23.2-.7,20.2,12.7v.4h0s0-.2,0-.2Z" style="fill: #f9ae94; stroke: #1b3f1c; stroke-miterlimit: 10; stroke-width: .5px;" data-active="1" />
      <path id="prosthesis-implant-crown" d="M17.9,6.2c1.8,0,3.8.3,5.7.4,1.3,0,2.6.2,3.8.6.8.3,1.4.5,2.2.8,1.2.5,2.4,1.2,3.3,2.2.9.9,1.7,2,2,3.3.2.5.3,1.1.4,1.7.3,1.4.4,2.7.4,4.1s0,2-.2,3.1c0,1.4-.2,2.6-.4,3.9-.4,1.7-.8,3.6-1.7,5.1-1.2,2-3.5,3.2-5.7,3.7-.8.2-1.8.3-2.6.5-1.3.3-2.5.7-3.8,1-1.1.3-2.2.2-3.2,0-.9,0-1.9-.3-2.8-.3-1.6-.2-3.3-.3-4.7-1.2-1.1-.8-1.9-1.9-2.6-3.1-.8-1.3-1.4-2.7-1.7-4.2-.3-1.1-.2-2.3-.2-3.4s.4-3,.6-4.5c.3-1.8.4-3.6.8-5.4.4-1.8,1.3-3.4,2.4-4.7,1.2-1.4,2.8-2.5,4.5-3.1,1.1-.3,2.3-.4,3.4-.4h0v-.2h.1Z" style="fill: #f9ae94; stroke: #000; stroke-miterlimit: 10;" data-active="1" />
      </g>
    <g id="prosthesis" style="display: none;" data-active="1">
      <path id="prosthesis-bridge-connector" d="M45.1,23.7c-2.6,8.1-12.8,3.2-18.7,3.7-7.8-.9-20.6,4.1-26.1-2.6-1.9-2.8-3.2-7.5-.7-10.3,4.8-4.3,18.2-3.9,25.3-3.7,8.1.6,23.2-.7,20.2,12.7v.4h0s0-.2,0-.2Z" style="fill: #f9ae94; stroke: #1b3f1c; stroke-miterlimit: 10; stroke-width: .5px;" data-active="1" />
      <path id="prosthesis-crown" d="M17.4,3.4c2.1,0,4.5.3,6.7.5,1.5,0,3.1.2,4.5.7.9.3,1.7.6,2.6,1,1.4.6,2.8,1.4,3.9,2.6,1.1,1.1,2,2.4,2.4,3.9.2.6.3,1.3.5,2,.3,1.7.5,3.2.5,4.8s0,2.4-.2,3.6c0,1.6-.2,3.1-.5,4.6-.5,2-1,4.2-2,6-1.4,2.4-4.1,3.8-6.7,4.4-1,.2-2.1.4-3.1.6-1.5.3-3,.8-4.5,1.2-1.3.3-2.6.2-3.8,0-1.1,0-2.2-.3-3.3-.3-1.9-.2-3.9-.3-5.5-1.4-1.3-.9-2.3-2.2-3.1-3.6-1-1.5-1.7-3.2-2-5-.3-1.3-.2-2.7-.2-4s.5-3.5.7-5.3c.4-2.1.5-4.3,1-6.4.5-2.1,1.5-4,2.8-5.6,1.4-1.6,3.3-3,5.3-3.6,1.3-.3,2.7-.5,4-.5h0s0-.2,0-.2Z" style="fill: #f9ae94; stroke: #000; stroke-miterlimit: 10;" data-active="1" />
      </g>
    <g id="telescope" data-active="1">
      <path id="telescope-bridge-connector" d="M45.1,23.7c-2.6,8.1-12.8,3.2-18.7,3.7-7.8-.9-20.6,4.1-26.1-2.6-1.9-2.8-3.2-7.5-.7-10.3,4.8-4.3,18.2-3.9,25.3-3.7,8.1.6,23.2-.7,20.2,12.7v.4h0s0-.2,0-.2Z" style="display: none; fill: #0051bf; stroke: #1b3f1c; stroke-miterlimit: 10; stroke-width: .5px;" data-active="1" />
      <g id="telescope-crown" style="display: none;" data-active="1">
        <path id="telescope-crown-outside" d="M17.4,3.4c2.1,0,4.5.3,6.7.5,1.5,0,3.1.2,4.5.7.9.3,1.7.6,2.6,1,1.4.6,2.8,1.4,3.9,2.6,1.1,1.1,2,2.4,2.4,3.9.2.6.3,1.3.5,2,.3,1.7.5,3.2.5,4.8s0,2.4-.2,3.6c0,1.6-.2,3.1-.5,4.6-.5,2-1,4.2-2,6-1.4,2.4-4.1,3.8-6.7,4.4-1,.2-2.1.4-3.1.6-1.5.3-3,.8-4.5,1.2-1.3.3-2.6.2-3.8,0-1.1,0-2.2-.3-3.3-.3-1.9-.2-3.9-.3-5.5-1.4-1.3-.9-2.3-2.2-3.1-3.6-1-1.5-1.7-3.2-2-5-.3-1.3-.2-2.7-.2-4s.5-3.5.7-5.3c.4-2.1.5-4.3,1-6.4.5-2.1,1.5-4,2.8-5.6,1.4-1.6,3.3-3,5.3-3.6,1.3-.3,2.7-.5,4-.5h0s0-.2,0-.2Z" style="fill: #0051bf; stroke: #000; stroke-miterlimit: 10;" data-active="1" />
        <path id="telescope-crown-inside" d="M18.1,7.8c1.6,0,3.4.3,5.1.4,1.2.1,2.4.2,3.4.5.7.2,1.3.5,1.9.7,1.1.4,2.1,1.1,3,1.9.8.8,1.5,1.8,1.8,2.9.2.5.3,1,.4,1.5.2,1.3.4,2.4.4,3.7v2.7c0,1.2,0,2.4-.4,3.5-.4,1.5-.8,3.2-1.5,4.5-1.1,1.8-3.1,2.9-5.1,3.4-.8.2-1.6.3-2.3.4-1.2.2-2.3.6-3.4.9-1,.2-1.9,0-2.9,0s-1.7-.2-2.5-.3c-1.4,0-2.9-.2-4.1-1.1-1-.7-1.7-1.7-2.4-2.7-.7-1.1-1.3-2.4-1.5-3.8-.2-1-.2-2,0-3.1,0-1.4.3-2.7.6-4,.3-1.6.4-3.3.8-4.8.4-1.6,1.1-3.1,2.2-4.3,1.1-1.2,2.5-2.3,4-2.7,1-.3,2-.4,3-.4h0l-.3.2s-.2,0-.2,0Z" style="fill: #a0a0a0; stroke: #000; stroke-miterlimit: 10;" data-active="1" />
        </g>
      </g>
    <g id="zircon" data-active="1">
      <path id="zircon-bridge-connector" d="M45.1,23.7c-2.6,8.1-12.8,3.2-18.7,3.7-7.8-.9-20.6,4.1-26.1-2.6-1.9-2.8-3.2-7.5-.7-10.3,4.8-4.3,18.2-3.9,25.3-3.7,8.1.6,23.2-.7,20.2,12.7v.4h0s0-.2,0-.2Z" style="display: none; fill: #feffbf; stroke: #1b3f1c; stroke-miterlimit: 10; stroke-width: .5px;" data-active="1" />
      <path id="zircon-crown" d="M17.4,3.4c2.1,0,4.5.3,6.7.5,1.5,0,3.1.2,4.5.7.9.3,1.7.6,2.6,1,1.4.6,2.8,1.4,3.9,2.6,1.1,1.1,2,2.4,2.4,3.9.2.6.3,1.3.5,2,.3,1.7.5,3.2.5,4.8s0,2.4-.2,3.6c0,1.6-.2,3.1-.5,4.6-.5,2-1,4.2-2,6-1.4,2.4-4.1,3.8-6.7,4.4-1,.2-2.1.4-3.1.6-1.5.3-3,.8-4.5,1.2-1.3.3-2.6.2-3.8,0-1.1,0-2.2-.3-3.3-.3-1.9-.2-3.9-.3-5.5-1.4-1.3-.9-2.3-2.2-3.1-3.6-1-1.5-1.7-3.2-2-5-.3-1.3-.2-2.7-.2-4s.5-3.5.7-5.3c.4-2.1.5-4.3,1-6.4.5-2.1,1.5-4,2.8-5.6,1.4-1.6,3.3-3,5.3-3.6,1.3-.3,2.7-.5,4-.5h0s0-.2,0-.2Z" style="display: none; fill: #feffbf; stroke: #000; stroke-miterlimit: 10;" data-active="1" />
      </g>
    <g id="metal" data-active="1">
      <path id="metal-bridge-connector" d="M45.1,23.7c-2.6,8.1-12.8,3.2-18.7,3.7-7.8-.9-20.6,4.1-26.1-2.6-1.9-2.8-3.2-7.5-.7-10.3,4.8-4.3,18.2-3.9,25.3-3.7,8.1.6,23.2-.7,20.2,12.7v.4h0s0-.2,0-.2Z" style="display: none; fill: #0051bf; stroke: #1b3f1c; stroke-miterlimit: 10; stroke-width: .5px;" data-active="1" />
      <path id="metal-crown" d="M17.4,3.4c2.1,0,4.5.3,6.7.5,1.5,0,3.1.2,4.5.7.9.3,1.7.6,2.6,1,1.4.6,2.8,1.4,3.9,2.6,1.1,1.1,2,2.4,2.4,3.9.2.6.3,1.3.5,2,.3,1.7.5,3.2.5,4.8s0,2.4-.2,3.6c0,1.6-.2,3.1-.5,4.6-.5,2-1,4.2-2,6-1.4,2.4-4.1,3.8-6.7,4.4-1,.2-2.1.4-3.1.6-1.5.3-3,.8-4.5,1.2-1.3.3-2.6.2-3.8,0-1.1,0-2.2-.3-3.3-.3-1.9-.2-3.9-.3-5.5-1.4-1.3-.9-2.3-2.2-3.1-3.6-1-1.5-1.7-3.2-2-5-.3-1.3-.2-2.7-.2-4s.5-3.5.7-5.3c.4-2.1.5-4.3,1-6.4.5-2.1,1.5-4,2.8-5.6,1.4-1.6,3.3-3,5.3-3.6,1.3-.3,2.7-.5,4-.5h0s0-.2,0-.2Z" style="display: none; fill: #0051bf; stroke: #000; stroke-miterlimit: 10;" data-active="1" />
      </g>
    <g id="emax" data-active="1">
      <path id="emax-crown" d="M17.4,3.4c2.1,0,4.5.3,6.7.5,1.5,0,3.1.2,4.5.7.9.3,1.7.6,2.6,1,1.4.6,2.8,1.4,3.9,2.6,1.1,1.1,2,2.4,2.4,3.9.2.6.3,1.3.5,2,.3,1.7.5,3.2.5,4.8s0,2.4-.2,3.6c0,1.6-.2,3.1-.5,4.6-.5,2-1,4.2-2,6-1.4,2.4-4.1,3.8-6.7,4.4-1,.2-2.1.4-3.1.6-1.5.3-3,.8-4.5,1.2-1.3.3-2.6.2-3.8,0-1.1,0-2.2-.3-3.3-.3-1.9-.2-3.9-.3-5.5-1.4-1.3-.9-2.3-2.2-3.1-3.6-1-1.5-1.7-3.2-2-5-.3-1.3-.2-2.7-.2-4s.5-3.5.7-5.3c.4-2.1.5-4.3,1-6.4.5-2.1,1.5-4,2.8-5.6,1.4-1.6,3.3-3,5.3-3.6,1.3-.3,2.7-.5,4-.5h0s0-.2,0-.2Z" style="display: none; fill: url(#radial-gradient-16-occl-0); stroke: #000; stroke-miterlimit: 10;" data-active="1" />
      </g>
    <g id="temporary-restorations" data-active="1">
      <path id="temporary-bridge-connector" d="M45.1,23.7c-2.6,8.1-12.8,3.2-18.7,3.7-7.8-.9-20.6,4.1-26.1-2.6-1.9-2.8-3.2-7.5-.7-10.3,4.8-4.3,18.2-3.9,25.3-3.7,8.1.6,23.2-.7,20.2,12.7v.4h0s0-.2,0-.2Z" style="display: none; fill: #fffffb; stroke: #1b3f1c; stroke-miterlimit: 10; stroke-width: .5px;" data-active="1" />
      <path id="temporary-crown" d="M17.4,3.4c2.1,0,4.5.3,6.7.5,1.5,0,3.1.2,4.5.7.9.3,1.7.6,2.6,1,1.4.6,2.8,1.4,3.9,2.6,1.1,1.1,2,2.4,2.4,3.9.2.6.3,1.3.5,2,.3,1.7.5,3.2.5,4.8s0,2.4-.2,3.6c0,1.6-.2,3.1-.5,4.6-.5,2-1,4.2-2,6-1.4,2.4-4.1,3.8-6.7,4.4-1,.2-2.1.4-3.1.6-1.5.3-3,.8-4.5,1.2-1.3.3-2.6.2-3.8,0-1.1,0-2.2-.3-3.3-.3-1.9-.2-3.9-.3-5.5-1.4-1.3-.9-2.3-2.2-3.1-3.6-1-1.5-1.7-3.2-2-5-.3-1.3-.2-2.7-.2-4s.5-3.5.7-5.3c.4-2.1.5-4.3,1-6.4.5-2.1,1.5-4,2.8-5.6,1.4-1.6,3.3-3,5.3-3.6,1.3-.3,2.7-.5,4-.5h0s0-.2,0-.2Z" style="display: none; fill: #fff; stroke: #000; stroke-miterlimit: 10;" data-active="1" />
      </g>
    </g>
  <g id="specials" data-active="1">
    <g id="missing-closed" style="display: none;" data-active="1">
      <path d="M3.2,4.8c23.7,9.9,21,22.6,0,32.8" style="fill: none; stroke: #000; stroke-miterlimit: 10; stroke-width: 2px;" data-active="1" />
      <path d="M39.4,36.8c-23.8-9.8-21.5-22.5-.6-32.8" style="fill: none; stroke: #000; stroke-miterlimit: 10; stroke-width: 2px;" data-active="1" />
      </g>
    <g id="extraction-plan" style="display: none;" data-active="1">
      <path d="M4.1,37.3C5.8,34.8,39,4.5,40,3.2" style="fill: none; stroke: #b70000; stroke-miterlimit: 10; stroke-width: 3px;" data-active="1" />
      <path d="M4.6,3.5c3.3,2.2,24.6,25,28.9,30.6.7,1,1.5,1.9,2.5,2.7" style="fill: none; stroke: #b70000; stroke-miterlimit: 10; stroke-width: 3px;" data-active="1" />
      </g>
    <g id="crown-needed" style="display: none;" data-active="1">
      <path id="crown-needed-shape" d="M17.4,2.8c2.1,0,4.6.3,6.8.5,1.6,0,3.2.2,4.6.7.9.3,1.7.6,2.6,1,1.4.6,2.9,1.4,3.9,2.6,1.1,1.1,2,2.4,2.5,3.9.3.6.3,1.3.5,2,.3,1.7.5,3.2.5,4.9s0,2.4-.3,3.6c0,1.6-.3,3.1-.5,4.7-.5,2-1.1,4.2-2,6.1-1.4,2.4-4.2,3.8-6.8,4.5-1.1.2-2.1.4-3.2.6-1.6.3-3,.8-4.6,1.2-1.3.3-2.6.2-3.8,0-1.1,0-2.2-.3-3.3-.3-2-.2-3.9-.3-5.5-1.4-1.3-.9-2.4-2.2-3.2-3.6-1.1-1.5-1.7-3.2-2-5.1-.3-1.3-.3-2.7-.3-4s.5-3.5.7-5.4c.4-2.1.5-4.3,1.1-6.5.5-2.1,1.6-4,2.9-5.7,1.4-1.6,3.3-3,5.4-3.6,1.3-.3,2.8-.5,4.1-.5h0v-.2s-.3,0-.3,0Z" style="fill: #c83014; stroke: #000; stroke-miterlimit: 10;" data-active="1" />
      <path id="crown-needed-path" d="M18.8,3.6c-3.1,3.7-6.2,7.5-9.2,11.1-1.1,1.5-4.4,3.4-3,5.2,1.7,1.3,3.1-1.3,4-2.2,4.6-4.7,7.7-11,15.2-13.9.6-.2,1.1-.2,1.3,0,.2.2.2.7,0,1.2-3.1,7.4-14.9,14.6-18.1,21.6-6.9,13.4,2.3,5.6,6.8-1.3,3.8-5,9.7-13.1,15.3-17.2,3.6-1.8,2.5,2.8,1.9,4.2-2,7.1-15.1,13-15.2,20.3,1.4,6,12.3-10.4,14.8-12.7,1-1,3.9-3.5,4-1.1-.1,4-3.7,8.4-6.3,11.4-.8,1.1-1.8,2.2-2,3.5,1,2.7,8.4-4.8,9.5-5.9" style="fill: #feffbf; stroke: #1b3f1c; stroke-miterlimit: 10;" data-active="1" />
      </g>
    <g id="crown-replace" style="display: none;" data-active="1">
      <path id="crown-replace-shape" d="M17.5,3.9c2,0,4.4.3,6.6.5,1.5,0,3,.2,4.4.7.9.3,1.6.6,2.5,1,1.4.6,2.8,1.3,3.8,2.5,1,1.1,1.9,2.3,2.4,3.8.3.6.3,1.3.5,1.9.3,1.6.5,3.1.5,4.6s0,2.3-.3,3.5c0,1.5-.3,3-.5,4.4-.5,1.9-1,4-1.9,5.8-1.4,2.3-4,3.7-6.6,4.2-1,.2-2,.4-3,.6-1.5.3-2.9.8-4.4,1.2-1.3.3-2.5.2-3.7,0-1,0-2.2-.3-3.2-.3-1.9-.2-3.8-.3-5.3-1.3-1.3-.9-2.3-2.1-3-3.5-1-1.4-1.6-3.1-1.9-4.8-.3-1.3-.3-2.6-.3-3.9s.5-3.4.6-5.1c.4-2,.5-4.1,1-6.2.5-2,1.5-3.9,2.8-5.4,1.4-1.5,3.2-2.9,5.2-3.5,1.3-.3,2.7-.5,3.9-.5h0v-.2s-.3,0-.3,0Z" style="fill: none; stroke: #c83014; stroke-miterlimit: 10; stroke-width: 3px;" data-active="1" />
      </g>
    </g>
  </svg>
