<?xml version="1.0" encoding="UTF-8"?>
<svg id="Layer_1" xmlns="http://www.w3.org/2000/svg" xmlns:xlink="http://www.w3.org/1999/xlink" version="1.1" viewBox="0 0 256 256">
  <!-- Created by Zoltan Dul in 2026 - free to use with MIT license. SVG Version: 2.1.1 -->
  <defs>
    <pattern id="gumPattern" x="0" y="0" width="12" height="12" patternTransform="translate(6 16638)" patternUnits="userSpaceOnUse" viewBox="0 0 12 12">
      <g>
        <rect width="12" height="12" style="fill: none;"/>
        <g>
          <rect width="12" height="12" style="fill: none;"/>
          <rect width="12" height="12" style="fill: #f6b7c1;"/>
          <circle cx="3" cy="3" r="1.2" style="fill: #f1a8b5;"/>
          <circle cx="9" cy="7" r="1.2" style="fill: #f1a8b5;"/>
        </g>
      </g>
    </pattern>
  </defs>
  <path id="gum-line" d="M28.8,98.9c3.7-3.1,9-2.7,13.7-1.6,21.6,5.2,39.5,22.7,59.9,39.8,8.7,7.5,19.7,15,31.4,10.8,4.6-1.5,9.3-4.5,13.4-7.5,22.7-17.2,47.3-36.9,71.6-42.5,5.9-1.3,13.3-2.9,18.1,1.2,2.1,1.9,3.5,4.9,4.4,8.9,1.3,6.6,1.2,14.2,1.1,21.1,0,15-.6,28.4-1.6,43.2-4.3,79.9-15.9,82.9-91.7,81.4-18.2-.6-34.8-.7-52.5-.4-18.6-.3-40.1.7-55.7-10.3-26.7-19.4-26.6-81.3-21.4-112.9,1.7-9.7,2-24.6,9.2-31.3h.1Z" style="fill: url(#gumPattern); stroke: #e596a3; stroke-linejoin: round; stroke-width: 4px;"/>
  <path id="tooth-base" d="M122.9,152.7c-7.3-2-11.8,14.6-14.2,20.4-1.6,4.4-3.1,8.3-4.3,12.7-4.4,16.1-1.6,34.3-6.8,50.3-3.5,12.7-15.3,14.4-21.2,2.2-2.9-6.1-3.9-12.9-4.8-19.6-1-7.7-.8-15.6.7-23.1,1.8-11.4,7.5-22,7.5-33.8,0-17.2-3-32.7-6.7-49.2-8.4-29.3-27.4-79.6,13.2-93.9,12.3-4.9,25,3.3,37.5,3,1.7,0,3.4-.2,5.1-.4,12.9-2.1,27.7-9.6,41-5.3,22.5,7.4,20.6,39.1,16.6,58.5-1,4.8-2.3,9.4-3.6,13.2-2.2,6.2-5.3,12.2-6.7,19.1-1.9,8.4-2.9,16.8-3.7,25-1.5,15.5.3,30.4.5,45.1,0,8.7-.4,17.8-1.2,26.3-.8,8.3-2.5,16.7-4.5,24.9-1.7,7.8-5.6,18.9-14.1,20.5-14.8.7-11.9-38.8-14.3-48.9-1.8-10.1-6.8-42.3-15.9-47.4h0v.4Z" style="fill: #fff; stroke: #000; stroke-miterlimit: 10; stroke-width: 8px;"/>
  <g id="x-line" style="display: none;">
    <line id="line-2" x1="18.3" y1="22.1" x2="226.9" y2="230.7" style="fill: none; stroke: #ef4444; stroke-linecap: round; stroke-width: 14px;"/>
    <line id="line-1" x1="18.3" y1="22.1" x2="226.9" y2="230.7" style="fill: none; isolation: isolate; opacity: .2; stroke: #111827; stroke-linecap: round; stroke-width: 3px;"/>
  </g>
</svg>