<?xml version="1.0" encoding="UTF-8"?>
<svg id="Layer_1" xmlns="http://www.w3.org/2000/svg" version="1.1" viewBox="0 0 256 256">
  <!-- Created by Zoltan Dul in 2026 - free to use with MIT license. SVG Version: 2.1.1 -->
  <path id="tooth-base" d="M122.9,152.7c-7.3-2-11.8,14.6-14.2,20.4-1.6,4.4-3.1,8.3-4.3,12.7-4.4,16.1-1.6,34.3-6.8,50.3-3.5,12.7-15.3,14.4-21.2,2.2-2.9-6.1-3.9-12.9-4.8-19.6-1-7.7-.8-15.6.7-23.1,1.8-11.4,7.5-22,7.5-33.8,0-17.2-3-32.7-6.7-49.2-8.4-29.3-27.4-79.6,13.2-93.9,12.3-4.9,25,3.3,37.5,3,1.7,0,3.4-.2,5.1-.4,12.9-2.1,27.7-9.6,41-5.3,22.5,7.4,20.6,39.1,16.6,58.5-1,4.8-2.3,9.4-3.6,13.2-2.2,6.2-5.3,12.2-6.7,19.1-1.9,8.4-2.9,16.8-3.7,25-1.5,15.5.3,30.4.5,45.1,0,8.7-.4,17.8-1.2,26.3-.8,8.3-2.5,16.7-4.5,24.9-1.7,7.8-5.6,18.9-14.1,20.5-14.8.7-11.9-38.8-14.3-48.9-1.8-10.1-6.8-42.3-15.9-47.4h0v.4Z" style="fill: #fff; stroke: #000; stroke-miterlimit: 10; stroke-width: 8px;"/>
  <path id="tooth-healthy-pulp-2" d="M155.3,232.3c-4.8-3.6.2-21-1.5-34.3.2-18.4-2.8-39.4-11.5-55.3-4.4-6.7-8.3-11.3-15.4-11.9-5.3-1.1-11.5,0-15.5,2.9-12,9.1-20.8,47.4-22.7,68.3-.9,6.1-2.1,38.8-7.7,16.8-4.7-20.5,4.3-34.2,7.1-56.2,5-17.3,12.3-36.7,9.8-61.3-1.6-14.8-7.3-32.8-10.3-46.6-2.5-13.8,4.5-13.3,16.5-7,8.8,3.7,15.4,12.4,26.1,10.4,16-3.4,27.7-19.7,33-16.6,2.2,1,3,9.7,2.1,11.8-2.8,13.8-7.8,28.1-9.2,41.8-1,14.8.6,30.2,2.3,45.5,1.6,14.8,10.3,88.5-3.4,93h0v-1.5s.5,0,.5,0Z" style="fill: #fcc5bc;"/>
  <g id="x-line" style="display: none;">
    <line id="line-2" x1="18.3" y1="22.1" x2="226.9" y2="230.7" style="fill: none; stroke: #ef4444; stroke-linecap: round; stroke-width: 14px;"/>
    <line id="line-1" x1="18.3" y1="22.1" x2="226.9" y2="230.7" style="fill: none; isolation: isolate; opacity: .2; stroke: #111827; stroke-linecap: round; stroke-width: 3px;"/>
  </g>
</svg>